<?xml version="1.0" encoding="utf-8"?>
<!-- Generator: Adobe Illustrator 25.4.1, SVG Export Plug-In . SVG Version: 6.00 Build 0)  -->
<svg version="1.1" id="Layer_1" xmlns="http://www.w3.org/2000/svg" xmlns:xlink="http://www.w3.org/1999/xlink" x="0px" y="0px"
	 viewBox="0 0 627.25 213.95" style="enable-background:new 0 0 627.25 213.95;" xml:space="preserve">
<style type="text/css">
	.st0{fill:url(#SVGID_1_);}
	.st1{fill:url(#SVGID_00000143593446556850851850000000309961080032350113_);}
	.st2{fill:url(#SVGID_00000014595139259559458760000001310740989053436034_);}
	.st3{fill:url(#SVGID_00000090280454488433547090000011766705948312381593_);}
	.st4{fill:url(#SVGID_00000021806029386647439640000002787306490392637104_);}
	.st5{fill:url(#SVGID_00000097464646549509916700000010252553182895572407_);}
	.st6{fill:url(#SVGID_00000130640192898785584640000008917397686182570880_);}
	.st7{fill:#FFC94E;}
	.st8{fill:#F29C40;}
	.st9{fill:#E6E6E6;}
	.st10{fill:#B6C1CC;}
</style>
<g>
	<g>
		<g>
			<linearGradient id="SVGID_1_" gradientUnits="userSpaceOnUse" x1="117.1099" y1="129.1582" x2="176.938" y2="129.1582">
				<stop  offset="0" style="stop-color:#FFC94E"/>
				<stop  offset="1" style="stop-color:#F29C40"/>
			</linearGradient>
			<path class="st0" d="M119.62,186.83c-1.39,0-2.51-1.12-2.51-2.51V74c0-1.39,1.12-2.51,2.51-2.51h38.24
				c12.48,0,19.08,6.23,19.08,18.02v28.02c0,5.59-1.74,8.94-4.01,10.93c2.27,1.92,4.01,5.07,4.01,10.22v30.14
				c0,11.79-6.6,18.02-19.08,18.02H119.62z M153.1,169.3c1.6,0,2.28-0.22,2.5-0.31c0.08-0.2,0.28-0.84,0.28-2.3v-27.14
				c0-1.49-0.2-2.11-0.29-2.31c-0.17-0.06-0.84-0.29-2.49-0.29h-15.11v32.34H153.1z M153.1,119.42c1.6,0,2.28-0.21,2.5-0.31
				c0.08-0.2,0.28-0.84,0.28-2.3v-25.2c0-1.49-0.2-2.12-0.29-2.31c-0.17-0.06-0.84-0.29-2.49-0.29h-15.11v30.4H153.1z"/>
			<path d="M157.86,74c11.04,0,16.57,5.17,16.57,15.51v28.02c0,6.23-2.35,9.87-7.05,10.93c4.7,1.18,7.05,4.58,7.05,10.22v30.14
				c0,10.34-5.52,15.51-16.57,15.51h-38.24V74H157.86 M135.48,121.93h17.62c2.12,0,3.52-0.32,4.23-0.97
				c0.7-0.64,1.06-2.03,1.06-4.14v-25.2c0-2.12-0.35-3.49-1.06-4.14c-0.71-0.64-2.11-0.97-4.23-0.97h-17.62V121.93 M135.48,171.81
				h17.62c2.12,0,3.52-0.32,4.23-0.97c0.7-0.64,1.06-2.03,1.06-4.14v-27.14c0-2.11-0.35-3.49-1.06-4.14
				c-0.71-0.64-2.11-0.97-4.23-0.97h-17.62V171.81 M157.86,68.98h-38.24c-2.77,0-5.02,2.25-5.02,5.02v110.32
				c0,2.77,2.25,5.02,5.02,5.02h38.24c13.72,0,21.58-7.48,21.58-20.53v-30.14c0-4.69-1.29-7.97-3.08-10.26
				c1.79-2.39,3.08-5.86,3.08-10.89V89.51C179.45,76.46,171.58,68.98,157.86,68.98L157.86,68.98z M140.5,91.53h12.6
				c0.09,0,0.18,0,0.27,0c0,0.03,0,0.06,0,0.09v25.2c0,0.03,0,0.06,0,0.09c-0.08,0-0.17,0-0.27,0h-12.6V91.53L140.5,91.53z
				 M140.5,139.46h12.6c0.09,0,0.18,0,0.27,0c0,0.03,0,0.06,0,0.09v27.14c0,0.03,0,0.06,0,0.09c-0.08,0-0.17,0-0.27,0h-12.6V139.46
				L140.5,139.46z"/>
		</g>
		<g>
			
				<linearGradient id="SVGID_00000023240642879657667180000004383410246326225034_" gradientUnits="userSpaceOnUse" x1="198.001" y1="129.1582" x2="250.9561" y2="129.1582">
				<stop  offset="0" style="stop-color:#FFC94E"/>
				<stop  offset="1" style="stop-color:#F29C40"/>
			</linearGradient>
			<path style="fill:url(#SVGID_00000023240642879657667180000004383410246326225034_);" d="M200.51,186.83
				c-1.39,0-2.51-1.12-2.51-2.51V74c0-1.39,1.12-2.51,2.51-2.51h46.7c1.39,0,2.51,1.12,2.51,2.51v12.87c0,1.39-1.12,2.51-2.51,2.51
				h-28.16v28.99h22.87c1.39,0,2.51,1.12,2.51,2.51v12.87c0,1.39-1.12,2.51-2.51,2.51h-22.87v32.7h29.39c1.39,0,2.51,1.12,2.51,2.51
				v12.87c0,1.39-1.12,2.51-2.51,2.51H200.51z"/>
			<path d="M247.21,74v12.87h-30.66v34.01h25.38v12.87h-25.38v37.71h31.9v12.87h-47.94V74H247.21 M247.21,68.98h-46.7
				c-2.77,0-5.02,2.25-5.02,5.02v110.32c0,2.77,2.25,5.02,5.02,5.02h47.94c2.77,0,5.02-2.25,5.02-5.02v-12.87
				c0-2.77-2.25-5.02-5.02-5.02h-26.88v-27.68h20.36c2.77,0,5.02-2.25,5.02-5.02v-12.87c0-2.77-2.25-5.02-5.02-5.02h-20.36V91.88
				h25.65c2.77,0,5.02-2.25,5.02-5.02V74C252.23,71.22,249.98,68.98,247.21,68.98L247.21,68.98z"/>
		</g>
		<g>
			
				<linearGradient id="SVGID_00000124149754826012724700000010919037614449940620_" gradientUnits="userSpaceOnUse" x1="267.2598" y1="129.1582" x2="320.2144" y2="129.1582">
				<stop  offset="0" style="stop-color:#FFC94E"/>
				<stop  offset="1" style="stop-color:#F29C40"/>
			</linearGradient>
			<path style="fill:url(#SVGID_00000124149754826012724700000010919037614449940620_);" d="M269.77,186.83
				c-1.39,0-2.51-1.12-2.51-2.51V74c0-1.39,1.12-2.51,2.51-2.51h46.7c1.39,0,2.51,1.12,2.51,2.51v12.87c0,1.39-1.12,2.51-2.51,2.51
				h-28.16v28.99h22.87c1.39,0,2.51,1.12,2.51,2.51v12.87c0,1.39-1.12,2.51-2.51,2.51h-22.87v32.7h29.39c1.39,0,2.51,1.12,2.51,2.51
				v12.87c0,1.39-1.12,2.51-2.51,2.51H269.77z"/>
			<path d="M316.47,74v12.87h-30.66v34.01h25.38v12.87h-25.38v37.71h31.9v12.87h-47.94V74H316.47 M316.47,68.98h-46.7
				c-2.77,0-5.02,2.25-5.02,5.02v110.32c0,2.77,2.25,5.02,5.02,5.02h47.94c2.77,0,5.02-2.25,5.02-5.02v-12.87
				c0-2.77-2.25-5.02-5.02-5.02h-26.88v-27.68h20.36c2.77,0,5.02-2.25,5.02-5.02v-12.87c0-2.77-2.25-5.02-5.02-5.02h-20.36V91.88
				h25.65c2.77,0,5.02-2.25,5.02-5.02V74C321.49,71.22,319.24,68.98,316.47,68.98L316.47,68.98z"/>
		</g>
		<g>
			
				<linearGradient id="SVGID_00000124861600870713495850000000969201835244257166_" gradientUnits="userSpaceOnUse" x1="336.5181" y1="129.1582" x2="399.6943" y2="129.1582">
				<stop  offset="0" style="stop-color:#FFC94E"/>
				<stop  offset="1" style="stop-color:#F29C40"/>
			</linearGradient>
			<path style="fill:url(#SVGID_00000124861600870713495850000000969201835244257166_);" d="M380.09,186.83
				c-1.05,0-1.99-0.65-2.35-1.64l-15.96-42.95h-4.38v42.08c0,1.39-1.12,2.51-2.51,2.51h-15.86c-1.39,0-2.51-1.12-2.51-2.51V74
				c0-1.39,1.12-2.51,2.51-2.51h36.13c12.36,0,18.9,6.23,18.9,18.02v34.54c0,10.86-5.42,15.35-10.94,17.1l16.41,42.26
				c0.3,0.77,0.2,1.64-0.27,2.33c-0.47,0.68-1.24,1.09-2.07,1.09H380.09z M370.4,124.53c1.6,0,2.28-0.22,2.5-0.31
				c0.08-0.2,0.28-0.84,0.28-2.3V91.97c0-1.49-0.2-2.11-0.29-2.31c-0.17-0.06-0.84-0.29-2.49-0.29h-13v35.16H370.4z"/>
			<path d="M375.16,74c10.93,0,16.39,5.17,16.39,15.51v34.54c0,8.93-3.94,14.04-11.81,15.33l17.45,44.94h-17.09l-16.57-44.59h-8.64
				v44.59h-15.86V74H375.16 M354.89,127.04h15.51c2.11,0,3.52-0.32,4.23-0.97c0.7-0.64,1.06-2.03,1.06-4.14V91.97
				c0-2.11-0.35-3.49-1.06-4.14c-0.71-0.64-2.12-0.97-4.23-0.97h-15.51V127.04 M375.16,68.98h-36.13c-2.77,0-5.02,2.25-5.02,5.02
				v110.32c0,2.77,2.25,5.02,5.02,5.02h15.86c2.77,0,5.02-2.25,5.02-5.02v-39.57h0.13l15.35,41.32c0.73,1.97,2.61,3.27,4.7,3.27
				h17.09c1.66,0,3.21-0.82,4.14-2.18c0.94-1.37,1.14-3.11,0.54-4.65l-15.5-39.92c6.63-3.11,10.2-9.51,10.2-18.53V89.51
				C396.56,76.46,388.76,68.98,375.16,68.98L375.16,68.98z M359.91,91.88h10.49c0.09,0,0.18,0,0.27,0c0,0.03,0,0.06,0,0.09v29.96
				c0,0.03,0,0.06,0,0.09c-0.08,0-0.17,0-0.27,0h-10.49V91.88L359.91,91.88z"/>
		</g>
		<g>
			
				<linearGradient id="SVGID_00000034790423450048618540000000439251986994146718_" gradientUnits="userSpaceOnUse" x1="408.0689" y1="129.1582" x2="476.7085" y2="129.1582">
				<stop  offset="0" style="stop-color:#FFC94E"/>
				<stop  offset="1" style="stop-color:#F29C40"/>
			</linearGradient>
			<path style="fill:url(#SVGID_00000034790423450048618540000000439251986994146718_);" d="M458.16,186.83
				c-1.22,0-2.27-0.88-2.47-2.08l-4.05-23.47h-19.01l-3.72,23.44c-0.19,1.22-1.24,2.12-2.48,2.12h-15.86c-0.74,0-1.45-0.33-1.92-0.9
				c-0.48-0.57-0.68-1.32-0.55-2.05l19.56-110.32c0.21-1.2,1.25-2.07,2.47-2.07h23.09c1.21,0,2.24,0.86,2.47,2.04l20.97,110.32
				c0.14,0.73-0.06,1.49-0.53,2.07c-0.48,0.58-1.19,0.91-1.93,0.91H458.16z M448.66,143.39l-6.95-40.25l-6.34,40.25H448.66z"/>
			<path d="M453.23,74l20.97,110.32h-16.04l-4.41-25.55h-23.26l-4.05,25.55h-15.86L430.14,74H453.23 M432.43,145.9h19.21
				L441.6,87.74L432.43,145.9 M453.23,68.98h-23.09c-2.43,0-4.52,1.75-4.94,4.14l-19.56,110.32c-0.26,1.46,0.14,2.96,1.1,4.1
				c0.95,1.14,2.36,1.79,3.85,1.79h15.86c2.47,0,4.57-1.79,4.96-4.23l3.38-21.32h14.75l3.69,21.39c0.42,2.41,2.5,4.17,4.95,4.17
				h16.04c1.5,0,2.91-0.67,3.87-1.82c0.95-1.15,1.34-2.67,1.06-4.14L458.16,73.06C457.71,70.69,455.64,68.98,453.23,68.98
				L453.23,68.98z M438.3,140.88l3.52-22.34l3.86,22.34H438.3L438.3,140.88z"/>
		</g>
		<g>
			
				<linearGradient id="SVGID_00000125562445215986803430000001494158557716981668_" gradientUnits="userSpaceOnUse" x1="491.7798" y1="129.1582" x2="549.3164" y2="129.1582">
				<stop  offset="0" style="stop-color:#FFC94E"/>
				<stop  offset="1" style="stop-color:#F29C40"/>
			</linearGradient>
			<path style="fill:url(#SVGID_00000125562445215986803430000001494158557716981668_);" d="M494.29,186.83
				c-1.39,0-2.51-1.12-2.51-2.51V74c0-1.39,1.12-2.51,2.51-2.51h36.13c12.36,0,18.9,6.23,18.9,18.02v36.66
				c0,11.79-6.54,18.02-18.9,18.02h-17.76v40.14c0,1.39-1.12,2.51-2.51,2.51H494.29z M525.66,126.47c1.65,0,2.28-0.25,2.45-0.33
				c0.08-0.16,0.33-0.8,0.33-2.45V91.97c0-1.49-0.2-2.11-0.29-2.31c-0.17-0.06-0.84-0.29-2.49-0.29h-13v37.1H525.66z"/>
			<path d="M530.42,74c10.93,0,16.39,5.17,16.39,15.51v36.66c0,10.34-5.46,15.51-16.39,15.51h-20.27v42.65h-15.86V74H530.42
				 M510.15,128.98h15.51c2.11,0,3.52-0.35,4.23-1.06c0.7-0.7,1.06-2.11,1.06-4.23V91.97c0-2.11-0.35-3.49-1.06-4.14
				c-0.71-0.64-2.12-0.97-4.23-0.97h-15.51V128.98 M530.42,68.98h-36.13c-2.77,0-5.02,2.25-5.02,5.02v110.32
				c0,2.77,2.25,5.02,5.02,5.02h15.86c2.77,0,5.02-2.25,5.02-5.02v-37.63h15.25c13.61,0,21.41-7.48,21.41-20.53V89.51
				C551.83,76.46,544.02,68.98,530.42,68.98L530.42,68.98z M515.17,91.88h10.49c0.09,0,0.18,0,0.27,0c0,0.03,0,0.06,0,0.09v31.72
				c0,0.09,0,0.18,0,0.27c-0.08,0-0.17,0-0.27,0h-10.49V91.88L515.17,91.88z"/>
		</g>
		<g>
			
				<linearGradient id="SVGID_00000176744948695913307210000006338126322493468606_" gradientUnits="userSpaceOnUse" x1="567.207" y1="129.1582" x2="624.7432" y2="129.1582">
				<stop  offset="0" style="stop-color:#FFC94E"/>
				<stop  offset="1" style="stop-color:#F29C40"/>
			</linearGradient>
			<path style="fill:url(#SVGID_00000176744948695913307210000006338126322493468606_);" d="M569.72,186.83
				c-1.39,0-2.51-1.12-2.51-2.51V74c0-1.39,1.12-2.51,2.51-2.51h36.13c12.36,0,18.9,6.23,18.9,18.02v36.66
				c0,11.79-6.54,18.02-18.9,18.02h-17.76v40.14c0,1.39-1.12,2.51-2.51,2.51H569.72z M601.09,126.47c1.83,0,2.41-0.31,2.48-0.35
				c-0.01-0.02,0.29-0.6,0.29-2.43V91.97c0-1.49-0.21-2.12-0.29-2.31c-0.17-0.06-0.84-0.29-2.49-0.29h-13v37.1H601.09z"/>
			<path d="M605.84,74c10.93,0,16.39,5.17,16.39,15.51v36.66c0,10.34-5.46,15.51-16.39,15.51h-20.27v42.65h-15.86V74H605.84
				 M585.58,128.98h15.51c2.11,0,3.52-0.35,4.23-1.06c0.7-0.7,1.06-2.11,1.06-4.23V91.97c0-2.11-0.35-3.49-1.06-4.14
				c-0.71-0.64-2.12-0.97-4.23-0.97h-15.51V128.98 M605.84,68.98h-36.13c-2.77,0-5.02,2.25-5.02,5.02v110.32
				c0,2.77,2.25,5.02,5.02,5.02h15.86c2.77,0,5.02-2.25,5.02-5.02v-37.63h15.25c13.61,0,21.41-7.48,21.41-20.53V89.51
				C627.25,76.46,619.45,68.98,605.84,68.98L605.84,68.98z M590.6,91.88h10.49c0.09,0,0.18,0,0.27,0c0,0.03,0,0.06,0,0.09v31.72
				c0,0.09,0,0.18,0,0.27c-0.08,0-0.17,0-0.27,0H590.6V91.88L590.6,91.88z"/>
		</g>
	</g>
	<g id="Layer_3">
		<path class="st7" d="M130.48,203.92c-0.03,3.68-3.01,6.66-6.69,6.69H10.04c-3.69-0.01-6.68-3-6.69-6.69
			c0.03-3.68,3.01-6.66,6.69-6.69h3.35v-70.26c5.54,0,10.04-4.49,10.04-10.04V86.82c0,5.54,4.49,10.04,10.04,10.04
			s10.04-4.49,10.04-10.04V63.03c1.56-1.56,2.88-3.34,3.91-5.29c1.99,7.28,8.61,12.34,16.16,12.35c3.62,0.01,7.15-1.16,10.04-3.35
			v36.8c0,3.7,3,6.69,6.69,6.69c3.7,0,6.69-3,6.69-6.69V70.09c0,3.7,3,6.69,6.69,6.69s6.69-3,6.69-6.69v-2.71
			c6.2,3.61,13.87,3.61,20.07,0v129.85h3.35C127.48,197.24,130.47,200.23,130.48,203.92z"/>
		<path class="st7" d="M120.44,96.86V83.47"/>
		<path class="st7" d="M120.44,157.08v-13.38"/>
		<path class="st8" d="M97.02,90.16L97.02,90.16c3.7,0,6.69,3,6.69,6.69v63.57c0,3.7-3,6.69-6.69,6.69l0,0c-3.7,0-6.69-3-6.69-6.69
			V96.86C90.33,93.16,93.33,90.16,97.02,90.16z"/>
		<path class="st8" d="M66.91,90.16L66.91,90.16c3.7,0,6.69,3,6.69,6.69v63.57c0,3.7-3,6.69-6.69,6.69l0,0c-3.7,0-6.69-3-6.69-6.69
			V96.86C60.22,93.16,63.22,90.16,66.91,90.16z"/>
		<path class="st8" d="M36.8,90.16L36.8,90.16c3.7,0,6.69,3,6.69,6.69v63.57c0,3.7-3,6.69-6.69,6.69l0,0c-3.7,0-6.69-3-6.69-6.69
			V96.86C30.11,93.16,33.11,90.16,36.8,90.16z"/>
		<path class="st9" d="M130.48,50.02c0,7.17-3.82,13.79-10.04,17.36c-6.2,3.61-13.87,3.61-20.07,0v2.71c0,3.7-3,6.69-6.69,6.69
			s-6.69-3-6.69-6.69v33.46c0,3.7-3,6.69-6.69,6.69c-3.7,0-6.69-3-6.69-6.69v-36.8c-2.89,2.18-6.42,3.36-10.04,3.35
			c-7.55-0.01-14.16-5.06-16.16-12.35c-1.04,1.95-2.36,3.73-3.91,5.29v23.79c0,5.54-4.49,10.04-10.04,10.04
			c-1.14,0.01-2.28-0.2-3.35-0.6c-4.02-1.39-6.71-5.18-6.69-9.43v30.11c0,5.54-4.49,10.04-10.04,10.04s-10.04-4.49-10.04-10.04
			V46.67c-0.02-11.64,8.55-21.52,20.07-23.15c1.1-0.19,2.22-0.28,3.35-0.27c5.08-0.01,10.01,1.64,14.05,4.72
			c-0.44-1.53-0.67-3.12-0.67-4.72c0-9.24,7.48-16.73,16.72-16.74c6.05,0,11.63,3.26,14.6,8.54c2.48-6.58,8.52-11.16,15.52-11.78
			c0.56-0.07,1.11-0.1,1.67-0.1c10.16,0.01,18.39,8.24,18.4,18.4c0.01,1.32-0.14,2.63-0.43,3.91c-0.39,1.88-1.1,3.67-2.07,5.32
			c10.6-3.23,21.82,2.74,25.06,13.35C130.19,46.06,130.48,48.03,130.48,50.02z"/>
		<path class="st10" d="M130.48,50.02c0,7.17-3.82,13.79-10.04,17.36c-6.2,3.61-13.87,3.61-20.07,0v2.71c0,3.7-3,6.69-6.69,6.69
			s-6.69-3-6.69-6.69v33.46c0,3.7-3,6.69-6.69,6.69c-3.7,0-6.69-3-6.69-6.69v-36.8c-2.89,2.18-6.42,3.36-10.04,3.35
			c-7.55-0.01-14.16-5.06-16.16-12.35c-1.04,1.95-2.36,3.73-3.91,5.29v23.79c0,5.54-4.49,10.04-10.04,10.04
			c-1.14,0.01-2.28-0.2-3.35-0.6V66.74c-0.02-11.64,8.55-21.52,20.07-23.15c1.1-0.19,2.22-0.28,3.35-0.27
			c5.08-0.01,10.01,1.64,14.05,4.72c-0.44-1.53-0.67-3.12-0.67-4.72c0-9.24,7.48-16.73,16.72-16.74c6.05,0,11.63,3.26,14.6,8.54
			c1.55-4.12,4.53-7.54,8.4-9.64c-0.39,1.88-1.1,3.67-2.07,5.32c10.6-3.23,21.82,2.74,25.06,13.35
			C130.19,46.06,130.48,48.03,130.48,50.02z"/>
		<path class="st8" d="M130.45,203.32c0.3,3.71-2.45,6.96-6.16,7.26c-0.17,0.01-0.34,0.02-0.51,0.02H10.41
			c-3.56,0.07-6.59-2.57-7.03-6.1c-0.31-3.71,2.45-6.96,6.16-7.26c0.16-0.01,0.33-0.02,0.49-0.02h3.35v-70.26
			c5.54,0,10.04-4.49,10.04-10.04v46.84c0,11.09,8.99,20.07,20.07,20.07h76.95v13.38h2.97
			C126.98,197.15,130.02,199.79,130.45,203.32z"/>
	</g>
	<g id="Layer_1_00000041996758667037478210000005591303954016237245_">
		<path d="M23.42,197.23c0,1.85,1.5,3.35,3.35,3.35h80.3c1.85,0,3.35-1.5,3.35-3.35c0-1.85-1.5-3.35-3.35-3.35h-80.3
			C24.92,193.88,23.42,195.38,23.42,197.23z"/>
		<path d="M30.11,130.31c-1.85,0-3.35,1.5-3.35,3.35v26.77c0,5.54,4.49,10.04,10.04,10.04s10.04-4.49,10.04-10.04v-53.53
			c0-1.85-1.5-3.35-3.35-3.35s-3.35,1.5-3.35,3.35v53.53c0,1.85-1.5,3.35-3.35,3.35s-3.35-1.5-3.35-3.35v-26.77
			C33.46,131.81,31.96,130.31,30.11,130.31z"/>
		<path d="M73.6,120.28c-1.85,0-3.35,1.5-3.35,3.35v36.8c0,1.85-1.5,3.35-3.35,3.35s-3.35-1.5-3.35-3.35V96.86
			c0-1.85-1.5-3.35-3.35-3.35s-3.35,1.5-3.35,3.35v63.57c0,5.54,4.49,10.04,10.04,10.04s10.04-4.49,10.04-10.04v-36.8
			C76.95,121.77,75.45,120.28,73.6,120.28z"/>
		<path d="M90.33,120.28c-1.85,0-3.35,1.5-3.35,3.35v36.8c0,5.54,4.49,10.04,10.04,10.04s10.04-4.49,10.04-10.04V96.86
			c0-1.85-1.5-3.35-3.35-3.35s-3.35,1.5-3.35,3.35v63.57c0,1.85-1.5,3.35-3.35,3.35s-3.35-1.5-3.35-3.35v-36.8
			C93.68,121.77,92.18,120.28,90.33,120.28z"/>
		<path d="M129.66,36.63c-4.5-6.48-11.96-10.25-19.84-10.03c1.92-8.06-0.92-16.51-7.31-21.78c-3.16-2.63-7.02-4.3-11.1-4.79
			c-1.84-0.21-3.49,1.11-3.71,2.94c-0.21,1.82,1.08,3.46,2.89,3.7c2.82,0.34,5.48,1.5,7.65,3.32c3.47,2.85,5.48,7.11,5.47,11.6
			c0.01,2.65-0.7,5.25-2.04,7.53c-0.94,1.59-0.42,3.64,1.17,4.58c0.81,0.48,1.78,0.6,2.68,0.32c1.58-0.48,3.23-0.73,4.88-0.73
			c9.24-0.02,16.74,7.45,16.76,16.69s-7.45,16.74-16.69,16.76c-2.95,0.01-5.85-0.77-8.41-2.24c-1.63-0.92-3.69-0.35-4.61,1.28
			c-0.28,0.49-0.43,1.04-0.44,1.6v2.71c0,1.85-1.5,3.35-3.35,3.35c-1.85,0-3.35-1.5-3.35-3.35c0-1.85-1.5-3.35-3.35-3.35
			c-1.85,0-3.35,1.5-3.35,3.35v33.46c0,1.85-1.5,3.35-3.35,3.35s-3.35-1.5-3.35-3.35V80.13c0-1.85-1.5-3.35-3.35-3.35
			c-1.85,0-3.35,1.5-3.35,3.35v23.42c0,5.54,4.49,10.04,10.04,10.04s10.04-4.49,10.04-10.04V79.56c5.23,1.85,10.96-0.89,12.81-6.12
			c0.12-0.35,0.23-0.7,0.31-1.06c4.45,1.35,9.19,1.37,13.65,0.05v98.03c0,1.85,1.5,3.35,3.35,3.35c1.85,0,3.35-1.5,3.35-3.35v-10.04
			v-6.69v-6.69v-6.69V100.2v-6.69v-6.69v-6.69V69.16C134.39,61.8,137.02,47.24,129.66,36.63z"/>
		<path d="M56.88,9.87c4.84,0.01,9.29,2.62,11.67,6.83c0.63,1.13,1.87,1.79,3.16,1.67c1.29-0.1,2.41-0.93,2.87-2.14
			c1.05-2.77,2.9-5.16,5.31-6.89c1.53-1.04,1.92-3.12,0.88-4.65c-1.04-1.53-3.12-1.92-4.65-0.88c-0.04,0.03-0.08,0.05-0.11,0.08
			c-1.95,1.39-3.66,3.1-5.05,5.06c-7.9-7.78-20.61-7.68-28.39,0.22c-3.36,3.41-5.39,7.91-5.72,12.69c-3.2-1.31-6.63-1.97-10.08-1.96
			c-1.28-0.02-2.55,0.08-3.81,0.3C9.8,22.13,0.04,33.38,0,46.67v70.26c0,7.39,5.99,13.38,13.38,13.38s13.38-5.99,13.38-13.38V98.4
			c6.4,3.7,14.59,1.5,18.28-4.9c1.17-2.03,1.79-4.34,1.79-6.69V64.46c3.73,5.6,10,8.96,16.73,8.98c4.35,0.02,8.58-1.39,12.04-4.01
			c1.48-1.11,1.77-3.21,0.67-4.68c-1.11-1.48-3.2-1.77-4.68-0.67c-2.31,1.75-5.13,2.69-8.03,2.68c-6.04-0.02-11.33-4.06-12.93-9.88
			c-0.49-1.78-2.33-2.83-4.11-2.34c-0.88,0.24-1.63,0.84-2.06,1.65c-0.89,1.66-2.02,3.17-3.35,4.5c-0.62,0.63-0.97,1.48-0.96,2.37
			v23.79c0,3.7-3,6.69-6.69,6.69s-6.69-3-6.69-6.69c0-1.85-1.5-3.35-3.35-3.35c-1.85,0-3.35,1.5-3.35,3.35v30.11
			c0,3.7-3,6.69-6.69,6.69s-6.69-3-6.69-6.69V46.67c0.05-10.01,7.43-18.47,17.35-19.86c0.9-0.15,1.81-0.22,2.73-0.21
			c4.35-0.02,8.58,1.4,12.04,4.03c1.47,1.12,3.57,0.83,4.69-0.64c0.64-0.84,0.85-1.94,0.55-2.96c-0.36-1.23-0.55-2.5-0.56-3.79
			C43.49,15.86,49.49,9.87,56.88,9.87z"/>
		<path d="M10.04,213.95h113.75c5.53-0.03,10.01-4.51,10.04-10.04c0-5.54-4.49-10.04-10.04-10.04l0,0h-3.35
			c-1.85,0-3.35,1.5-3.35,3.35c0,1.85,1.5,3.35,3.35,3.35h3.35c1.85,0,3.35,1.5,3.35,3.35c-0.06,1.82-1.52,3.29-3.35,3.35H10.04
			c-1.85,0-3.35-1.5-3.35-3.35c0.05-1.83,1.52-3.3,3.35-3.35h3.35c1.85,0,3.35-1.5,3.35-3.35v-56.88c0-1.85-1.5-3.35-3.35-3.35
			s-3.35,1.5-3.35,3.35v53.53C4.51,193.91,0.03,198.38,0,203.92C0,209.46,4.49,213.95,10.04,213.95z"/>
		<circle cx="120.44" cy="183.84" r="3.35"/>
	</g>
	<path d="M123.79,197.91h-6.01c-0.38,0-0.68-0.31-0.68-0.68v-13.38h6.69V197.91z"/>
</g>
</svg>
