<?xml version="1.0" encoding="UTF-8"?>
<!-- Generator: Adobe Illustrator 27.0.0, SVG Export Plug-In . SVG Version: 6.00 Build 0)  -->
<svg xmlns="http://www.w3.org/2000/svg" xmlns:xlink="http://www.w3.org/1999/xlink" version="1.1" id="Capa_1" x="0px" y="0px" viewBox="0 0 512.001 512.001" style="enable-background:new 0 0 512.001 512.001;" xml:space="preserve" width="512" height="512">
<g>
	<path d="M441.024,171.801h-80.495v-19.01c0-6.075-2.799-4.033-8.874-4.033c-6.075,0-13.126-2.042-13.126,4.033v337.21H84.01V162.52   c0-6.075-3.426-2.982-9.501-2.982c-6.075,0-12.499-3.093-12.499,2.982v327.481h-5.266c-6.075,0-11,4.925-11,11s4.925,11,11,11   h309.05c6.075,0,11-4.925,11-11s-4.925-11-11-11h-5.266v-36.405c68.206-5.611,121.994-62.907,121.994-132.535V213.3   C482.522,190.417,463.906,171.801,441.024,171.801z M360.529,250.731h43.063v70.329c0,26.042-18.51,47.84-43.063,52.935V250.731z    M460.522,321.06c0,57.49-43.936,104.908-99.994,110.449v-35.192c36.746-5.347,65.063-37.052,65.063-75.257v-81.329   c0-6.075-4.925-11-11-11h-54.063v-34.93h80.495c10.751,0,19.499,8.747,19.499,19.499V321.06z"/>
	<path d="M211.269,429.655c-6.075,0-11-4.925-11-11V236.468c0-6.075,4.925-24.002,11-24.002c6.075,0,11,4.925,11,11v195.189   C222.269,424.73,217.345,429.655,211.269,429.655z"/>
	<path d="M138.074,429.655c-6.075,0-11-4.925-11-11V223.466c0-6.075,4.925-11,11-11c6.075,0,11,17.287,11,23.362v182.827   C149.074,424.73,144.149,429.655,138.074,429.655z"/>
	<path d="M284.466,429.655c-6.075,0-11-4.925-11-11V223.466c0-6.075,4.925-11,11-11c6.075,0,11,4.925,11,11v195.189   C295.466,424.73,290.541,429.655,284.466,429.655z"/>
	<path style="fill:#33CCCC;" d="M174.671,265.98c-26.246,0-47.598-21.352-47.598-47.598v-22.366   c0-10.752-8.747-19.499-19.498-19.499H90.079c-32.87,0-60.052-26.369-60.592-58.78c-0.297-17.84,7.288-34.737,20.812-46.359   c10.535-9.054,23.686-14.068,37.286-14.442c5.051-23.227,25.77-40.678,50.489-40.678c7.968,0,15.635,1.774,22.621,5.192   C173.853,7.386,192.38-0.49,212.004,0.024c18.953,0.492,36.472,8.724,48.83,22.535c7.768-4.744,16.891-6.932,26.336-6.144   c12.753,1.066,24.347,7.721,31.808,18.257c4.853,6.851,7.565,14.829,7.966,22.995c11.584,1.925,22.576,7.393,31.344,15.793   c12.21,11.697,18.78,27.422,18.499,44.279l0,0c-0.54,32.412-27.722,58.78-60.592,58.78h-74.426   c-10.751,0-19.499,8.747-19.499,19.499v22.366C222.269,244.628,200.917,265.98,174.671,265.98z M89.247,78.917   c-8.965,0-17.68,3.191-24.61,9.147c-8.547,7.345-13.341,18.027-13.153,29.307c0.342,20.483,17.655,37.147,38.595,37.147h17.496   c22.882,0,41.498,18.616,41.498,41.499v22.366c0,14.115,11.483,25.598,25.598,25.598s25.598-11.483,25.598-25.598v-22.366   c0-22.882,18.616-41.499,41.499-41.499h74.426c20.939,0,38.253-16.664,38.595-37.147l0,0c0.178-10.662-3.984-20.614-11.72-28.025   c-7.512-7.197-17.523-10.987-27.47-10.391c-3.516,0.214-6.919-1.277-9.155-3.998c-2.235-2.722-3.033-6.349-2.144-9.757   c1.597-6.126,0.403-12.618-3.276-17.813c-3.701-5.226-9.419-8.524-15.688-9.048c-6.951-0.583-13.554,2.079-18.114,7.299   c-2.307,2.641-5.741,4.026-9.229,3.723c-3.494-0.301-6.635-2.25-8.456-5.247c-8.161-13.429-22.405-21.69-38.104-22.097   c-15.714-0.407-30.331,7.106-39.178,20.096c-1.714,2.517-4.395,4.21-7.404,4.678c-3.012,0.468-6.077-0.334-8.474-2.212   c-5.274-4.134-11.604-6.319-18.304-6.319c-16.357,0-29.665,13.308-29.665,29.665l0.001,0.235c0.152,3.323-1.208,6.507-3.699,8.712   c-2.491,2.205-5.849,3.135-9.127,2.58C93.471,79.093,91.352,78.917,89.247,78.917z"/>
</g>















</svg>
