<?xml version="1.0" encoding="utf-8"?>
<!-- Generator: Adobe Illustrator 25.4.1, SVG Export Plug-In . SVG Version: 6.00 Build 0)  -->
<svg version="1.1" id="Layer_1" xmlns="http://www.w3.org/2000/svg" xmlns:xlink="http://www.w3.org/1999/xlink" x="0px" y="0px"
	 viewBox="0 0 406 306" style="enable-background:new 0 0 406 306;" xml:space="preserve">
<style type="text/css">
	.st0{fill:#750701;}
	.st1{opacity:0.75;fill:#CD2919;}
	.st2{fill:#FFFFFF;}
	.st3{fill:#FFB430;}
	.st4{fill:#DF7C57;}
	.st5{fill:#0087A7;}
	.st6{fill:#549FB8;}
	.st7{fill:#004358;}
	.st8{fill:#FFA783;}
	.st9{fill:#004B5D;}
	.st10{fill:#78949F;}
	.st11{fill:#003645;}
	.st12{fill:#00657E;}
	.st13{opacity:0.25;fill:#CD2919;}
	.st14{fill:#D37E63;}
	.st15{opacity:0.5;fill:#FFB430;}
	.st16{opacity:0.2;fill:#CD2919;}
	.st17{fill:#CD2919;}
	.st18{opacity:0.25;fill:#00657E;}
	.st19{opacity:0.1;fill:#FFFFFF;}
	.st20{opacity:0.75;}
	.st21{opacity:0.25;fill:#FFFFFF;}
	.st22{opacity:0.2;fill:#C47800;}
	.st23{opacity:0.2;fill:#FFFFFF;}
	.st24{opacity:0.1;fill:#CD2919;}
	.st25{opacity:0.3;fill:#FFFFFF;}
	.st26{fill:#E1861A;}
	.st27{fill:#CB730C;}
	.st28{fill:#CB770C;}
	.st29{fill:#3F3F3F;}
	.st30{fill:#E28D21;}
	.st31{opacity:0.8;}
	.st32{opacity:0.8;fill:#FFFFFF;}
	.st33{fill:#FFB742;}
	.st34{fill:#FFDBA4;}
	.st35{fill:#FFFDFC;}
</style>
<g>
	<polygon class="st0" points="120.1,42.7 122.7,40.9 122.7,40.9 123.2,40.6 124.8,39.7 124.9,39.7 126.8,38.7 126.7,37 122.2,40.3 	
		"/>
	<g>
		<path class="st1" d="M152.3,59.1l0.4,1l9.2-3.2l-0.4-1.1c-0.3-1-1.3-1.5-2.3-1.3c-0.1,0-0.2,0-0.2,0.1l-1,0.4v0l-0.4,0.1l-3.4,1.2
			l-0.6,0.2C152.5,56.9,152,58.1,152.3,59.1z"/>
		<polygon class="st1" points="151.8,47.4 154.1,56.3 157.6,55.1 158,55 158.4,54.8 154.8,46.7 154.7,46.4 154.4,46.5 		"/>
		<path class="st1" d="M151.7,46.9l2.7-1c0.1-0.1,0.3,0,0.4,0.2l0,0c0.1,0.1,0,0.3-0.2,0.4l-2.7,1c-0.1,0.1-0.3,0-0.4-0.2l0,0
			C151.5,47.1,151.6,46.9,151.7,46.9z"/>
		<path class="st2" d="M151.7,46.2l2.4-0.8c0.1,0,0.2,0,0.2,0.1l0.2,0.4l-2.7,1l-0.2-0.4C151.5,46.3,151.6,46.2,151.7,46.2z"/>
	</g>
	<g>
		<path class="st1" d="M139.4,63.4l0.4,1.1l0.1,0h0l9.1-3.1l-0.4-1.2c-0.4-1-1.5-1.6-2.6-1.2l-5.4,1.9
			C139.5,61.2,139,62.4,139.4,63.4z"/>
		<polygon class="st1" points="141.2,60.6 145.4,59.1 141.7,50.7 138.8,51.7 		"/>
		<path class="st1" d="M138.7,51.2l2.7-1c0.1-0.1,0.3,0,0.4,0.2l0,0c0.1,0.1,0,0.3-0.2,0.4l-2.7,1c-0.1,0.1-0.3,0-0.4-0.2l0,0
			C138.5,51.4,138.6,51.2,138.7,51.2z"/>
		<path class="st2" d="M138.7,50.5l2.4-0.8c0.1,0,0.2,0,0.2,0.1l0.2,0.4l-2.7,1l-0.2-0.4C138.5,50.6,138.6,50.5,138.7,50.5z"/>
	</g>
	<path class="st3" d="M100.8,31.8L94.6,33c0,0,5.7,5.5,9.1,9.8l7.8-3l6.2-2.4l6.6-2.6c0,0,0.2-0.8,0.4-2c0.5-3.2,0.8-9.5-4.4-12.5
		c-3.2-0.1-8.2,0.6-13,1.7c-5,1.1-9.7,2.5-11.6,3.4c-0.3,0.2-0.6,0.3-0.8,0.5C98.2,26.1,105,27,105,27s-10.5,2.3-11,2.3
		C97.5,29.7,100.8,31.8,100.8,31.8z"/>
	<polygon class="st4" points="116.9,70 117.8,72.7 119,76.1 120.9,81.7 124.4,92 124.4,92 124.5,92.2 124.5,92.1 129,90.6 177.3,74 
		170,52.7 169.8,51.9 168,52.5 158.8,55.7 155.1,57 145.8,60.1 142.1,61.4 135.2,63.8 133,64.5 133,64.5 132.9,64.5 129.2,65.8 
		127.9,66.2 126.3,66.8 120,69 	"/>
	
		<rect x="126.7" y="82.5" transform="matrix(-0.9461 0.324 -0.324 -0.9461 331.5499 133.1368)" class="st4" width="55.9" height="23.4"/>
	<path class="st5" d="M88.6,91.9c2.2,2,4.1,3.7,5.6,5v0c3.6,3.2,5.4,4.6,6.2,5.3c0.1-1.8,0.5-5.1,1.8-8.9c1.8-5.1,5.2-11.1,12-15.2
		l-10.5-10.5C103.8,67.6,84.1,72.5,88.6,91.9z"/>
	<path class="st6" d="M100.4,103.7c0,0,0.7-0.1,3.4,0c0.1-0.3,0.1-0.6,0.2-0.9c0.1-0.3,0.2-0.6,0.3-0.9c0.2-0.6,0.4-1.3,0.7-1.9
		c0.1-0.2,0.2-0.4,0.3-0.7c0.4-0.9,0.8-1.8,1.2-2.7c0.2-0.5,0.5-0.9,0.7-1.4c0,0,0,0,0,0c0.2-0.5,0.5-0.9,0.7-1.4
		c0.1-0.2,0.3-0.5,0.4-0.7c2.4-4.2,5.3-8.1,7.4-10c0.3-0.2,0.5-0.5,0.8-0.6c0.5-0.4,0.9-0.5,1.3-0.5c2.2,0.2,1.5,2.4,1.1,3.3
		c-0.1,0.2-0.2,0.4-0.2,0.4c0.1-0.1,0.2-0.2,0.3-0.3c0.8-0.8,1.5-2.3,2-3.8c0.9-2.8,0.8-5.8-1.9-5.7c-0.6,0-1.4,0.2-2.3,0.7
		c-0.8,0.4-1.7,0.9-2.4,1.3c-6.8,4.1-10.3,10.1-12,15.2c-1.3,3.8-1.7,7.1-1.8,8.9C100.4,103.1,100.4,103.7,100.4,103.7z"/>
	<path class="st5" d="M118.9,85.6l5.6,6.5l-3.5-10.3C120.4,83.3,119.7,84.8,118.9,85.6z"/>
	<path class="st7" d="M116.4,82.6l2.4,2.8c0.4-0.9,1-3.1-1.1-3.3C117.3,82.1,116.9,82.3,116.4,82.6z"/>
	<path class="st8" d="M103.8,103.7l7.6,5.2l6.8,4.7l0,1.2c0,0.6,0.6,1.1,1.2,1.1l12.6-1.7l0.5-0.1h0l13-1.7l35.2-4.6l2.4-0.3
		c1.7-0.2,3.2-1.2,4-2.7l1.4-2.4c1.2-2.1,1.3-4.6,0.2-6.8l-0.9-1.9c-0.3-0.6-0.8-1-1.4-1.1l-3-0.7l1.5,4.4l-5.1-4
		c-0.4-0.2-0.8,0.1-0.8,0.5c0,1.2,0,3.5,0,5.5c0,1.4,0,2.7,0,3.4c-2.4-0.3-4.8-0.7-7.1-1c-23.7-3.1-44.4-5.1-44.4-5.1l-2.4-2.8
		l-0.6-0.7l-0.1-0.1v0l-5.6-6.5l-0.1-0.1l-1-1.2l-1.4-1.6l-0.8,0.6c-2.1,1.8-4.9,5.7-7.4,10c-0.1,0.2-0.3,0.5-0.4,0.7
		c-0.2,0.5-0.5,0.9-0.7,1.4c0,0,0,0,0,0c-0.2,0.5-0.5,0.9-0.7,1.4c-0.5,0.9-0.9,1.8-1.2,2.7c-0.1,0.2-0.2,0.4-0.3,0.7
		c-0.3,0.7-0.5,1.3-0.7,1.9c-0.1,0.3-0.2,0.6-0.3,0.9C103.9,103.1,103.8,103.4,103.8,103.7z"/>
	<path class="st2" d="M122.9,105.1C122.9,105.1,122.9,105.1,122.9,105.1c0.1,0,0.2-0.1,0.2-0.2c-0.8-4.7,3.8-8.6,4.4-9
		c1.7,0.2,31.3,3.4,36.1,4c0.1,0,0.2-0.1,0.2-0.2c0-0.1-0.1-0.2-0.2-0.2c-4.9-0.6-35.9-4-36.2-4c0,0-0.1,0-0.1,0
		c-0.1,0-5.6,4.3-4.6,9.5C122.7,105,122.8,105.1,122.9,105.1z"/>
	<path class="st5" d="M102.7,125.8c-2.9,6.1-4.9,14.3-4.9,14.3l8.1-6.9l4.9,5.9l4.1-0.8l16.5-3.4l23.5-4.9c0,0,0,0,0,0l3.7-0.9
		l-2.8-3.5l-3.4-4.3l-4-5l-3-3.8l-26.1,3.4c-0.6,0.1-1.2-0.4-1.2-1l0-1.2l-11.9-8.2l-2.4-1.7c-2.7-0.1-3.4,0-3.4,0s0-0.5,0-1.5
		c-0.8-0.7-2.6-2.1-6.2-5.3c3.7,14.5,9.1,21,10.8,24.8C104.3,122.8,103.5,124.2,102.7,125.8z"/>
	<path class="st9" d="M59.3,257.6l1.8,0.9l9.6,4.9l3.6-7.9L97,205.9c0,0,0,0,2-0.4c1.7-0.5,11-18,16.2-24.6
		c4.5-3.5,13.5-15.8,16.6-20.1c0.7-1,1.1-1.5,1.1-1.5c5.6,9.9,23.1,24,28.7,28.4h0c1.1,0.8,1.7,1.3,1.7,1.3s-0.3,0.4-0.7,1
		c-1.6,2.1-5.3,7.3-7.5,11c-0.6,8.8,2.5,22.6,4.6,30.7c1,3.9,1.8,6.5,1.8,6.5l-0.9,25.1l3.9-0.7l8.9-1.7l0.1-0.6l9.3-72.6l1.5-1.5
		c0,0-0.1-1.2-0.4-3.2c-0.7-4.7-2-13.7-3.8-20.9c-5.2-11.5-19.2-26.2-23.7-30.8c-0.4-0.4-0.7-0.7-0.9-0.9c-0.3-0.3-0.5-0.5-0.5-0.5
		l0,0l-40,8.3l-4.1,0.8l-4.9-5.9l-8.1,6.9c-4.7,7.8-5.9,26.4-6.2,38v0.1c-0.1,5.9,0,6.9,0,6.9s-15.2,13.9-20.3,19.3
		C66.2,209.8,59.3,257.6,59.3,257.6z"/>
	<path class="st2" d="M135.3,153.3C135.3,153.3,135.3,153.3,135.3,153.3l6.7-0.5c0.1,0,0.1,0,0.1-0.1c0,0,0-0.1,0-0.1l-1.8-16
		c0-0.1-0.1-0.2-0.2-0.2c-0.1,0-0.2,0.1-0.2,0.2l1.8,15.8l-6.5,0.5c-0.1,0-0.2,0.1-0.2,0.2C135.1,153.3,135.2,153.3,135.3,153.3z"/>
	<path class="st2" d="M166.2,241.1c0.1,0,0.1,0,0.1-0.1c0.1-0.1,0.1-0.2,0-0.3c-10.7-9.2-11.1-38.2-11.1-39.7l8.1-11.8l6.6,3.3
		c0.1,0,0.2,0,0.3-0.1c0-0.1,0-0.2-0.1-0.3l-6.8-3.4c-0.1,0-0.2,0-0.2,0.1l-8.2,12c0,0,0,0.1,0,0.1c0,0.3,0.2,30.6,11.2,40
		C166.1,241.1,166.2,241.1,166.2,241.1z"/>
	<polygon class="st10" points="173.4,261 174.5,260.8 174.7,262.4 162.8,265.5 162.8,269.9 159.3,264.3 160.6,263.4 	"/>
	<path class="st8" d="M162.8,265.5v9.4c3.1-0.6,7.1-2.3,8.8-3.1v-8.6L162.8,265.5z"/>
	<polygon class="st11" points="174.7,262.4 171.5,265.9 171.5,263.2 	"/>
	<path class="st9" d="M158.6,283.2c2.7,0,32.5,0,32.5,0s-0.3-4-5.4-5.5c-0.5-0.2-1-0.3-1.6-0.4c-6.6-1.1-11.7-5.9-11.7-5.9
		s-0.3,0.1-0.8,0.4c-1.7,0.8-5.7,2.5-8.8,3.1c-0.5,0.1-1,0.2-1.5,0.2c-0.9,0.8-2.3,3.9-2.7,6.9C158.6,282.4,158.6,282.8,158.6,283.2
		z"/>
	<path class="st12" d="M169.1,268.5c0.1,0.9,0.5,2.9,1.4,4.2c0.1,0.1,0.2,0.2,0.3,0.2l1.6,0.1c0.1,0,0.3-0.1,0.3-0.2
		c0.3-1.3,0.4-3.3,0.4-4.2c0-0.3-0.2-0.5-0.5-0.5h-3.1C169.3,268.1,169.1,268.3,169.1,268.5z"/>
	<path class="st11" d="M164.5,262.7l-2.2-10.7c-0.1-0.5,0.5-0.9,0.9-0.6l0,0c0.5,0.4,1.2,0,1.1-0.7l-2.7-12.4l-0.9,25.1L164.5,262.7
		z"/>
	<path class="st2" d="M97,206.1c0.1,0,0.2-0.1,0.2-0.1c0-0.1,0-0.2-0.1-0.2l-5.7-1.4c-0.1,0-0.2,0-0.2,0.1c0,0.1,0,0.2,0.1,0.2
		L97,206.1C96.9,206.1,96.9,206.1,97,206.1z"/>
	<path class="st13" d="M138.1,68.1l0.2,0.7c0.4,1.2,1.7,1.8,2.8,1.4l11.3-3.9c0.9-0.3,1.5-1.1,1.5-2c0-0.3,0-0.5-0.1-0.8l-0.2-0.7
		c-0.4-1.2-1.7-1.8-2.8-1.4l-11.3,3.9c-0.3,0.1-0.6,0.3-0.8,0.5C138.1,66.4,137.8,67.3,138.1,68.1z"/>
	<path class="st13" d="M146.8,90.3l0.2,0.7c0.4,1.2,1.7,1.8,2.8,1.4l11.3-3.9c0.9-0.3,1.5-1.1,1.5-2c0-0.3,0-0.5-0.1-0.8l-0.2-0.7
		c-0.4-1.2-1.7-1.8-2.8-1.4l-11.3,3.9c-0.3,0.1-0.6,0.3-0.8,0.5C146.8,88.5,146.5,89.4,146.8,90.3z"/>
	<path class="st1" d="M138.7,65.8c0,0.3,0,0.5,0.1,0.8l0.2,0.7c0.4,1.2,1.7,1.8,2.8,1.4l11.3-3.9c0.3-0.1,0.6-0.3,0.8-0.5
		c0-0.3,0-0.5-0.1-0.8l-0.2-0.7c-0.4-1.2-1.7-1.8-2.8-1.4l-11.3,3.9C139.2,65.4,138.9,65.6,138.7,65.8z"/>
	<path class="st1" d="M147.4,87.9c0,0.3,0,0.5,0.1,0.8l0.2,0.7c0.4,1.2,1.7,1.8,2.8,1.4l11.3-3.9c0.3-0.1,0.6-0.3,0.8-0.5
		c0-0.3,0-0.5-0.1-0.8l-0.2-0.7c-0.4-1.2-1.7-1.8-2.8-1.4l-11.3,3.9C147.9,87.5,147.6,87.7,147.4,87.9z"/>
	<polygon class="st10" points="70.7,263.4 57.8,256.8 57.8,260.1 71.2,264.6 71.6,263.8 	"/>
	<polygon class="st8" points="68.8,263.8 66,270.8 59.3,269.2 61.1,261.2 	"/>
	<polygon class="st11" points="71.2,264.6 67.9,266 68.8,263.8 	"/>
	<polygon class="st11" points="57.8,260.1 57.8,262.6 60.6,263.8 61.1,261.2 	"/>
	<path class="st9" d="M50.6,284c2.3,2.1,7.9,5.6,17.5,0.3c0.4-0.2,0.7-0.7,0.6-1.2c-0.4-3.5-0.9-8.6-1.1-10.9
		c-0.1-0.7-0.6-1.3-1.3-1.4c-1.7-0.3-4.8-0.9-6.7-2c-0.8-0.5-1.8-0.1-2.2,0.7c-1.7,3.2-4.6,8.1-6.4,11c-0.2,0.4-0.5,0.7-0.7,1
		C49.7,282.2,49.8,283.3,50.6,284z"/>
	<path class="st12" d="M64.5,271.4l2-4.3c0.1-0.2,0-0.4-0.2-0.5l-5.9-2.1c-0.2-0.1-0.5,0.1-0.5,0.3v5.7c0,0.4,0.3,0.7,0.6,0.7
		l3.2,0.5C64.1,271.9,64.4,271.7,64.5,271.4z"/>
	<path class="st2" d="M59.7,279.8c-0.1,0-0.1-0.1-0.1-0.2l-0.4-6.6c0-0.1,0-0.1,0.1-0.2c0,0,0.1-0.1,0.2,0l4.3,0.6
		c0.1,0,0.1,0.1,0.1,0.1c0,0.1,0,0.1,0,0.2l-3.8,6C59.9,279.8,59.8,279.8,59.7,279.8C59.7,279.8,59.7,279.8,59.7,279.8z M59.5,273.2
		l0.4,5.8l3.3-5.3L59.5,273.2z"/>
	<polygon class="st12" points="158.7,129 157.4,132.4 155,129.9 	"/>
	<path class="st8" d="M111.9,47.5c0.4,1.3,1.4,2.2,2.4,2.4v4.8l12.7,4.6h1.4l1.2-14.1l-2.9-3.5l-2.4-6.8l-6.6,2.6l-3.4,1.3v5
		c-0.3,0-0.6,0-0.9,0C112.1,44.2,111.4,45.8,111.9,47.5z"/>
	<path class="st5" d="M103.8,67.6l10.5,10.5c0.8-0.5,1.6-0.9,2.4-1.3c0.9-0.4,1.7-0.6,2.3-0.7l-1.2-3.4l0,0L103.8,67.6z"/>
	<path class="st8" d="M103.8,67.6l14,5.2l0,0l-0.9-2.7l11.1-3.8l5.1-1.7l-6.8-0.5l-0.7-5.2l-11.1-4v-2.9l-3.5,0.7l-0.1,0.8v0
		l-1.1,11.7L103.8,67.6C103.8,67.6,103.8,67.6,103.8,67.6z"/>
	<path class="st14" d="M103.7,42.8c0.4,0.3,6,6.8,7,8l0.2,0.2l-0.1,1.5l3.5-0.7v-1.9c-1.1-0.2-2-1.1-2.4-2.4
		c-0.5-1.7,0.2-3.3,1.5-3.7c0.3-0.1,0.6-0.1,0.9,0v-5L103.7,42.8z"/>
	<path class="st15" d="M103.7,42.8c0.4,0.3,6,6.8,7,8l0.2,0.2l-0.1,1.4v0l0,0l0.4-0.1l3.1-0.6v-1.9c-1.1-0.2-2-1.1-2.4-2.4
		c-0.5-1.7,0.2-3.3,1.5-3.7c0.3-0.1,0.6-0.1,0.9,0v-5l-2.8,1.1L103.7,42.8z"/>
	<path class="st16" d="M125.7,61c0-0.1-12.7-5-12.7-5l1.2-4.3l0,2.9l11.1,4L125.7,61z"/>
	<g>
		<path class="st17" d="M114.7,44.7c-0.4,0-0.8,0.2-1.2,0.4c-0.4,0.2-0.7,0.6-0.8,1c-0.1,0.4-0.1,0.9,0.2,1.3
			c0.1,0.2,0.2,0.4,0.4,0.5c0.2,0.1,0.3,0.3,0.5,0.4c-0.2-0.4-0.4-0.7-0.5-1.1c-0.1-0.4-0.2-0.7-0.1-1.1c0.1-0.3,0.4-0.6,0.6-0.9
			C114,45,114.3,44.8,114.7,44.7z"/>
		<polygon class="st17" points="112.8,46.5 113.9,46.2 113.8,46.2 114.6,46.8 114,46 113.9,46 113.9,46 112.8,46.1 		"/>
	</g>
	<path class="st16" d="M118.2,113.6l-5.9-8.4c-0.8-1.2-1-2.7-0.5-4.1l6.1-16.8l-1.4-1.6l-0.8,0.6c-2.1,1.8-4.9,5.7-7.4,10
		c-0.1,0.2-0.3,0.5-0.4,0.7c-0.2,0.5-0.5,0.9-0.7,1.4c0,0,0,0,0,0c-0.2,0.5-0.5,0.9-0.7,1.4c-0.5,0.9-0.9,1.8-1.2,2.7
		c-0.1,0.2-0.2,0.4-0.3,0.7c-0.3,0.7-0.5,1.3-0.7,1.9c-0.1,0.3-0.2,0.6-0.3,0.9c-0.1,0.3-0.1,0.6-0.2,0.9L118.2,113.6z"/>
	<path class="st16" d="M118.2,113.6l0,1.2c0,0.6,0.6,1.1,1.2,1l12.6-1.7l0.5-0.1h0l13-1.7l35.2-4.6c1-2-50.5-0.1-51.5,1.9
		C127.5,113.3,118.2,113.6,118.2,113.6z"/>
	<path class="st2" d="M103.8,103.9c0.1,0,0.2-0.1,0.2-0.1c4.7-14.5,12.7-21.6,14.2-21.3c0.3,0.1,0.5,0.2,0.6,0.5
		c0.5,0.8-0.1,2.5-0.2,2.5c0,0.1,0,0.2,0.1,0.3c0.1,0,0.2,0,0.3-0.1c0-0.1,0.7-1.8,0.1-2.8c-0.2-0.3-0.5-0.6-0.9-0.7
		c-1.7-0.4-9.9,6.9-14.6,21.6C103.6,103.7,103.6,103.8,103.8,103.9C103.7,103.9,103.8,103.9,103.8,103.9z"/>
	<path class="st18" d="M105.1,121.7c-4.1,5.5-7.2,18.4-7.2,18.4l8.1-6.9l4.9,5.9l4.1-0.8c3.2-10.6-5-22.3-8-26.7
		c-1.2-1.7-1.2-4-0.7-6.1l-2.4-1.7c-2.7-0.1-3.4,0-3.4,0s0-0.5,0-1.5c-0.8-0.7-2.6-2.1-6.2-5.3C98,111.5,103.3,117.9,105.1,121.7z"
		/>
	<path class="st2" d="M88.8,81.1c0.1,0,0.2-0.1,0.2-0.1c1.9-5.9,6.8-9.5,10.6-11.4c2.3-1.2,5.2-0.7,7.1,1.1l7.6,7.6
		c0.1,0.1,0.2,0.1,0.3,0c0.1-0.1,0.1-0.2,0-0.3l-7.6-7.6c-2-2-5-2.5-7.5-1.2c-3.8,2-8.8,5.6-10.8,11.6C88.6,80.9,88.6,81,88.8,81.1
		C88.7,81.1,88.8,81.1,88.8,81.1z"/>
	<path class="st19" d="M169.9,102.7c-6.2-0.7-12.4-1.4-18.7-2.1c-5-0.6-10-1.1-15-1.7c-2.3-0.3-4.5-0.5-6.8-0.2
		c-1.5,0.2-3.2,0.9-3.7,2.4c-0.6,1.6,0.6,3.5,2.2,4.2c1.6,0.7,3.4,0.6,5.1,0.5c6.1-0.4,12.1-0.6,18.2-0.6c6,0,12.1,0.1,18.1,0.3
		c1,0,3.2,0.5,3.4-0.9C173,103.2,170.9,102.8,169.9,102.7z"/>
	<path class="st18" d="M111.4,108.9c0,0,6.6,8.4,6.8,8.7c0.2,0.3,27.3-5.2,27.3-5.2l-13,1.7h0l-0.5,0.1l-12.6,1.7
		c-0.6,0.1-1.2-0.4-1.2-1.1l0-1.2L111.4,108.9z"/>
	<g class="st20">
		<path class="st11" d="M91.7,178.1c0.7-15.1,13.3-40.9,13.3-40.9s0,0,0,0.1c1.3,3.3,4.6,5.4,8.2,5.2c16.1-1.1,40.9-12.2,41.7-12.5
			l-40,8.3l-4.1,0.8l-4.9-5.9l-8.1,6.9C93.1,147.8,91.9,166.4,91.7,178.1z"/>
		<path class="st11" d="M132.9,159.3c5.6,9.9,23.1,24,28.7,28.4h0c0,0,0.7-7.4-1.5-9.7c-2.2-2.3-1.7,4.1-3.1,2.6
			c-1.4-1.5-2.7-11.4-5.9-13.4c-3.2-2-3.2,0-4.4,0c-1.3,0-11.6-11-11.6-11L132.9,159.3z"/>
		<path class="st11" d="M59.3,257.6l1.8,0.9l15.5-43.8v-6L91.7,190l0-5c0,0-15.2,13.9-20.3,19.3C66.2,209.8,59.3,257.6,59.3,257.6z"
			/>
	</g>
	<path class="st12" d="M50.6,284c2.3,2.1,7.9,5.6,17.5,0.3c0,0-6.9-4.6-17.2-3.9c-0.2,0.4-0.5,0.7-0.7,1
		C49.7,282.2,49.8,283.3,50.6,284z"/>
	<path class="st12" d="M158.6,283.2c2.7,0,32.5,0,32.5,0s-0.3-4-5.4-5.5c-1.6,0.8-3.1,2.3-3.4,4.9c-3.8-0.1-18-0.5-23.6-0.6
		C158.6,282.4,158.6,282.8,158.6,283.2z"/>
	<path class="st2" d="M178.6,278.2c0-0.5,0.4-1,1-1c0.5,0,1,0.4,1,1c0,0.5-0.4,1-1,1C179.1,279.2,178.6,278.8,178.6,278.2z
		 M179,278.2c0,0.3,0.3,0.6,0.6,0.6c0.3,0,0.6-0.3,0.6-0.6c0-0.3-0.3-0.6-0.6-0.6C179.3,277.6,179,277.9,179,278.2z"/>
	<path class="st2" d="M174.6,276.9c0-0.8,0.7-1.5,1.5-1.5c0.8,0,1.5,0.7,1.5,1.5c0,0.8-0.7,1.5-1.5,1.5
		C175.3,278.4,174.6,277.7,174.6,276.9z M175,276.9c0,0.6,0.5,1.1,1.1,1.1c0.6,0,1.1-0.5,1.1-1.1c0-0.6-0.5-1.1-1.1-1.1
		C175.5,275.7,175,276.3,175,276.9z"/>
	<path class="st11" d="M159.7,231.8l-3.2-27.2l6-14.5c-1.6,2.1-5.3,7.3-7.5,11C154.4,209.9,157.6,223.7,159.7,231.8z"/>
	<path class="st2" d="M140.7,133.1C140.7,133.1,140.7,133.1,140.7,133.1l18-3.9c0.1,0,0.1-0.1,0.1-0.1c0-0.1,0-0.1,0-0.2l-11.2-14
		c-0.1-0.1-0.2-0.1-0.3,0c-0.1,0.1-0.1,0.2,0,0.3l11,13.8l-17.7,3.8c-0.1,0-0.2,0.1-0.1,0.2C140.5,133,140.6,133.1,140.7,133.1z"/>
	<polygon class="st1" points="124.4,92 124.5,92.1 125.1,92.8 177.7,75.2 177.3,74 	"/>
	<path class="st2" d="M180,190.2c0,0,0.1,0,0.1,0l4.2-3.7c0,0,0.1-0.1,0.1-0.2c-0.1-0.8-2.4-18.5-3.5-20.9c0-0.1-0.2-0.1-0.3-0.1
		c-0.1,0-0.1,0.2-0.1,0.3c1,2.3,3.2,19.2,3.4,20.7l-4.1,3.6l-4.8-2.2c-0.1,0-0.2,0-0.3,0.1c0,0.1,0,0.2,0.1,0.3L180,190.2
		C179.9,190.2,180,190.2,180,190.2z"/>
	<path class="st19" d="M174.5,169.9c5.1,13.7,3.5,29,1.1,43.5c-2.4,14.5-5.5,29.2-3.3,43.7c0.2,1.2,0.4,2.4,1.1,3.3l9.3-72.6
		l1.5-1.5c0,0-0.1-1.2-0.4-3.2c-0.7-4.7-2-13.7-3.8-20.9c-5.2-11.5-19.2-26.2-23.7-30.8c-0.2,0.4-0.3,0.9-0.3,1.5
		c-0.2,2.2,0.6,4.4,1.5,6.5C162.5,149.9,170.4,158.9,174.5,169.9z"/>
	<path class="st19" d="M74.3,255.5L97,205.9c0,0,0,0,2-0.4c1.7-0.5,11-18,16.2-24.6c4.5-3.5,13.5-15.8,16.6-20.1
		c-0.2-0.4-0.4-0.9-0.8-1.3c-2.5-3.1-7.2-4.2-10.9-3.2c-5.1,1.5-8.8,6-10.9,10.9c-2.1,4.9-2.9,10.3-4.2,15.4
		c-3.7,14-11.8,26.4-18.7,39.1C80.5,232.3,75.4,243.7,74.3,255.5z"/>
	<path class="st2" d="M122.8,173.7c0.1,0,0.1,0,0.2-0.1l13.4-18.8c0.1-0.1,0-0.2,0-0.3c-0.1-0.1-0.2,0-0.3,0l-13.4,18.8
		c-0.1,0.1,0,0.2,0,0.3C122.7,173.7,122.8,173.7,122.8,173.7z"/>
	<polygon class="st16" points="171.5,263.2 171.5,264.5 164.7,267.5 162.8,271.8 162.8,265.5 	"/>
	<polygon class="st16" points="68.4,264.9 60.6,263.8 61.1,261.2 68.8,263.8 	"/>
	<path class="st2" d="M159.3,264.2c0,0,0.1,0,0.1,0l1.3-0.9l13.8-2.6c0.1,0,0.2-0.1,0.2-0.2c0-0.1-0.1-0.2-0.2-0.2l-13.9,2.6
		c0,0-0.1,0-0.1,0l-1.3,0.9c-0.1,0.1-0.1,0.2,0,0.3C159.2,264.2,159.2,264.2,159.3,264.2z"/>
	<path class="st2" d="M71.9,264.9c0.1,0,0.2-0.1,0.2-0.1c0-0.1,0-0.2-0.1-0.2l-14.6-4.9c-0.1,0-0.1,0-0.2,0c-0.1,0-0.1,0.1-0.1,0.2
		v1.7c0,0.1,0.1,0.2,0.2,0.2c0.1,0,0.2-0.1,0.2-0.2v-1.5L71.9,264.9C71.8,264.9,71.8,264.9,71.9,264.9z"/>
	<path class="st2" d="M97,206.1C97,206.1,97,206.1,97,206.1l2-0.4c0,0,0.1,0,0.1,0c0.1-0.1,2.3-1.9,5.5-7.8c0.1-0.1,0-0.2-0.1-0.3
		c-0.1-0.1-0.2,0-0.3,0.1c-2.9,5.5-5.1,7.4-5.3,7.7l-1.9,0.4c-0.1,0-0.2,0.1-0.2,0.2C96.8,206.1,96.9,206.1,97,206.1z"/>
	<path class="st16" d="M117.8,72.7l-6.8-3.6l1.1-3.8l-1.4-12l-1.1,11.7l-5.8,2.6c0,0,0,0,0,0L117.8,72.7z"/>
	<path class="st21" d="M107.3,22c0.2,1.2,1,2.4,2.1,3c1.3,0.7,2.8,0.9,4.2,1.2c1.4,0.3,3,0.7,3.9,1.9c0.7,0.9,1,2.1,1.9,2.9
		c1.1,0.9,2.6,0.8,3.9,1.2c0.4,0.1,0.9,0.4,1.4,0.7c0.5-3.2,0.8-9.5-4.4-12.5C117.1,20.2,112.1,21,107.3,22z"/>
	<path class="st2" d="M125,30c0.3-1.9,0.1-3.8-0.8-5.6c-0.4-0.9-0.9-1.7-1.6-2.4c-0.6-0.7-1.4-1.3-2.2-1.8c0,0,0,0-0.1,0l0,0
		c-1-0.1-2.1,0-3.1,0.1c-1,0.1-2,0.2-3.1,0.4c-2,0.3-4,0.7-6,1.2c2-0.3,4-0.7,6.1-0.9c1-0.1,2-0.3,3-0.3c1-0.1,2-0.1,3-0.1l-0.1,0
		c0.8,0.5,1.5,1.1,2.2,1.7c0.7,0.7,1.2,1.4,1.6,2.3c0.4,0.8,0.7,1.7,0.9,2.6C125,28.1,125.1,29.1,125,30z"/>
	<g>
		<path class="st1" d="M126.3,66.8l1.6-0.6l1.3-0.4l3.7-1.3l0.1,0h0l2.2-0.7c-0.5-0.6-1.4-0.8-2.1-0.5l-5.4,1.9
			C126.9,65.4,126.4,66.1,126.3,66.8z"/>
		<polygon class="st1" points="125.8,56 128.2,64.9 132.5,63.4 131.8,62 131.8,61.9 128.7,55 127.5,55.5 127.5,55.5 		"/>
		<path class="st1" d="M125.8,55.5l2.7-1c0.1-0.1,0.3,0,0.4,0.2v0c0.1,0.1,0,0.3-0.2,0.4l-2.7,1c-0.1,0.1-0.3,0-0.4-0.2l0,0
			C125.5,55.7,125.6,55.5,125.8,55.5z"/>
		<path class="st2" d="M125.7,54.8l2.4-0.8c0.1,0,0.2,0,0.2,0.1l0.2,0.4l-2.7,1l-0.2-0.4C125.6,54.9,125.6,54.8,125.7,54.8z"/>
	</g>
	<path class="st22" d="M100.8,31.8L94.6,33c0,0,5.7,5.5,9.1,9.8c0.4,0.3,6,6.8,7,8l0.2,0.2l-0.1,1.4c0,0,0,0,0,0
		c0.1,0,0.2,0.1,0.3,0.2c0-0.1,0.1-0.2,0.1-0.2c0.5-1.1,0.3-2.5-0.2-3.6c-0.6-1.2-1.5-2.2-2.3-3.2c-0.4-0.4-0.8-0.9-1-1.4
		c-0.2-0.6-0.3-1.2,0-1.7c0.5-0.7,1.4-0.8,2.2-1.1c0.8-0.2,1.7-0.8,1.7-1.6v0c0-0.4-0.3-0.7-0.5-0.9c-0.8-0.9-1.9-1.5-2.9-2.1
		c-1-0.6-2.1-1.3-2.8-2.3c-0.7-1-0.9-2.4-0.3-3.4c0.7-1.1,2.2-1.7,2.3-2.9c0-0.8-0.6-1.5-1.2-1.8c-0.7-0.3-1.5-0.3-2.3-0.4
		c-2-0.1-4.1-0.1-6.2-0.2c-0.7,0-1.3-0.1-1.9-0.3c-0.3,0.2-0.6,0.3-0.8,0.5C98.2,26.1,105,27,105,27s-10.5,2.3-11,2.3
		C97.5,29.7,100.8,31.8,100.8,31.8z"/>
	<path class="st2" d="M121.1,26.2c-0.9-0.5-1.8-0.7-2.8-0.8c-1-0.1-2,0.1-2.9,0.4c-0.9,0.3-1.8,0.8-2.6,1.5
		c-0.8,0.7-1.3,1.5-1.9,2.3c-0.6,0.8-1.1,1.6-1.9,2.2c-0.7,0.6-1.6,1.1-2.4,1.5c-1.8,0.8-3.7,1.4-5.5,1.9c1.9-0.4,3.9-0.8,5.7-1.6
		c0.9-0.4,1.8-0.9,2.5-1.5c0.8-0.6,1.4-1.4,2-2.2c0.6-0.8,1.1-1.6,1.8-2.3c0.7-0.7,1.6-1.1,2.4-1.5
		C117.2,25.4,119.3,25.4,121.1,26.2z"/>
	<path class="st2" d="M114.9,29.3c-1.2,1.9-2.5,3.8-4.2,5.3c-1.7,1.5-3.7,2.7-5.9,3c-2.2,0.4-4.5,0.2-6.7-0.4
		c-2.2-0.5-4.3-1.4-6.4-2.2c2.1,1,4.1,1.9,6.3,2.5c2.2,0.6,4.5,0.9,6.8,0.5c2.3-0.4,4.4-1.6,6-3.2C112.6,33.3,113.9,31.3,114.9,29.3
		z"/>
	<path class="st2" d="M122.7,24.2c-1.6-0.9-3.4-1.4-5.2-1.4c-1.8-0.1-3.7,0.2-5.4,1c-1.7,0.7-3.2,1.8-4.4,3.2
		c-1.2,1.4-2.1,3-2.6,4.8c0.6-1.7,1.6-3.3,2.8-4.6c1.2-1.3,2.7-2.4,4.4-3.1c1.6-0.7,3.4-1,5.2-1C119.3,23,121.1,23.4,122.7,24.2z"/>
	<g>
		<path class="st1" d="M158.4,54.8l0.3,0.9l6.8-2.3l2.4-0.8l-0.3-1c-0.4-1-1.5-1.6-2.6-1.2l-0.6,0.2v0l-0.7,0.2l-3.6,1.3l-0.6,0.2
			C158.6,52.6,158.1,53.8,158.4,54.8z"/>
		<polygon class="st1" points="157.9,43.1 160.3,52 163.8,50.8 164.5,50.5 164.5,50.5 164.2,49.8 161.1,42.9 160.8,42.2 160.8,42.1 
					"/>
		<path class="st1" d="M157.8,42.6l2.7-1c0.1-0.1,0.3,0,0.4,0.2l0,0c0.1,0.1,0,0.3-0.2,0.4l-2.7,1c-0.1,0.1-0.3,0-0.4-0.2l0,0
			C157.6,42.8,157.7,42.6,157.8,42.6z"/>
		<path class="st2" d="M157.8,41.9l2.4-0.8c0.1,0,0.2,0,0.2,0.1l0.2,0.4l-2.7,1l-0.2-0.4C157.6,42,157.7,41.9,157.8,41.9z"/>
	</g>
	<g>
		<path class="st1" d="M145.5,59.1l0.4,1l9.2-3.2l-0.4-1.1c-0.1-0.3-0.2-0.5-0.4-0.7c-0.3-0.3-0.8-0.6-1.3-0.6c-0.3,0-0.6,0-0.9,0.1
			l-0.6,0.2L151,55l-0.7,0.2l-3,1l-0.6,0.2C145.7,56.9,145.1,58.1,145.5,59.1z"/>
		<polygon class="st1" points="144.9,47.4 147.3,56.3 150.3,55.3 151,55 151.5,54.8 148,46.8 147.8,46.4 147.6,46.5 		"/>
		<path class="st1" d="M144.8,46.9l2.7-1c0.1-0.1,0.3,0,0.4,0.2l0,0c0.1,0.1,0,0.3-0.2,0.4l-2.7,1c-0.1,0.1-0.3,0-0.4-0.2l0,0
			C144.6,47.1,144.7,46.9,144.8,46.9z"/>
		<path class="st2" d="M144.8,46.2l2.4-0.8c0.1,0,0.2,0,0.2,0.1l0.2,0.4l-2.7,1l-0.2-0.4C144.6,46.3,144.7,46.2,144.8,46.2z"/>
	</g>
	<g>
		<path class="st1" d="M132.5,63.4l0.4,1.1l0.1,0h0l9.1-3.1l-0.4-1.2c-0.2-0.6-0.6-1-1.1-1.2c-0.5-0.2-1-0.2-1.5-0.1l-0.6,0.2
			l-0.4,0.1l-3.9,1.4l-0.6,0.2C132.7,61.2,132.1,62.4,132.5,63.4z"/>
		<polygon class="st1" points="131.9,51.7 134.3,60.6 138.2,59.3 138.6,59.1 134.8,50.7 134.7,50.7 		"/>
		<path class="st1" d="M131.9,51.2l2.7-1c0.1-0.1,0.3,0,0.4,0.2l0,0c0.1,0.1,0,0.3-0.2,0.4l-2.7,1c-0.1,0.1-0.3,0-0.4-0.2l0,0
			C131.6,51.4,131.7,51.2,131.9,51.2z"/>
		<path class="st2" d="M131.8,50.5l2.4-0.8c0.1,0,0.2,0,0.2,0.1l0.2,0.4l-2.7,1l-0.2-0.4C131.7,50.6,131.7,50.5,131.8,50.5z"/>
	</g>
	<g>
		<path class="st1" d="M119.5,67.7L120,69l8-2.7l1.3-0.4l-0.5-1.3c0-0.1-0.1-0.2-0.2-0.3c-0.5-0.8-1.5-1.2-2.4-0.9l-0.6,0.2
			l-0.7,0.2v0l-3.6,1.3l-0.6,0.2C119.7,65.5,119.2,66.7,119.5,67.7z"/>
		<polygon class="st1" points="119,56 121.3,64.9 124.9,63.7 124.9,63.7 125.6,63.4 121.9,55 120.7,55.4 120.7,55.4 		"/>
		<path class="st1" d="M118.9,55.5l2.7-1c0.1-0.1,0.3,0,0.4,0.2l0,0c0.1,0.1,0,0.3-0.2,0.4l-2.7,1c-0.1,0.1-0.3,0-0.4-0.2l0,0
			C118.7,55.7,118.7,55.5,118.9,55.5z"/>
		<path class="st2" d="M118.8,54.8l2.4-0.8c0.1,0,0.2,0,0.2,0.1l0.2,0.4l-2.7,1l-0.2-0.4C118.7,54.9,118.7,54.8,118.8,54.8z"/>
	</g>
	<path class="st23" d="M160.4,42.4l3.5,8.4l0.1,0.2l1.9,0.2l-0.2,2.2l2.4-0.8l-0.3-1c-0.4-1-1.5-1.6-2.6-1.2l-0.6,0.2l-0.3-0.7
		l-3.1-6.9l-0.3-0.7L160.4,42.4z"/>
	<path class="st23" d="M159,54.6l-1,0.4v0l0.2,0.9l1-1.3C159.2,54.6,159.1,54.6,159,54.6z"/>
	<polygon class="st23" points="154.4,46.5 157.9,54.7 158,55 158.4,54.8 154.8,46.7 154.7,46.4 154.4,46.5 	"/>
	<path class="st23" d="M147.6,46.5l2.9,7.9L151,55l0,0c0.5,0.7,1.3,0.9,2.1,0.6l1.2-0.5c-0.3-0.3-0.8-0.6-1.3-0.6
		c-0.3,0-0.6,0-0.9,0.1l-0.6,0.2l-3.5-8l-0.2-0.4L147.6,46.5z"/>
	<polygon class="st23" points="141.5,50.8 144.4,58.8 145.5,59.1 141.7,50.7 	"/>
	<path class="st23" d="M134.7,50.7l3.4,8.5h2.4V59c-0.5-0.2-1-0.2-1.5-0.1l-0.6,0.2l-3.7-8.4L134.7,50.7z"/>
	<polygon class="st23" points="127.5,55.5 128.6,55.4 131.8,61.9 128.7,55 	"/>
	<path class="st23" d="M120.7,55.4h1.2l3.1,8.2v0l3.6,0.5c-0.5-0.8-1.5-1.2-2.4-0.9l-0.6,0.2l-3.7-8.4L120.7,55.4z"/>
	<path class="st24" d="M116.9,70l0.9,2.7l1.2,3.4c2.7-0.2,2.8,2.8,1.9,5.7l3.5,10.3v0l0,0.1l0,0l4.5-1.5l0.6-0.3l-9.3-19.9L170,52.7
		l-0.3-0.8l-1.8,0.6l-9.2,3.2l-3.7,1.3l-9.2,3.2l-3.7,1.3l-7,2.4l-2.2,0.7h0l-0.1,0l-3.7,1.3l-1.3,0.4l-1.6,0.6L120,69L116.9,70z"/>
	<path class="st2" d="M176.6,73.5C176.6,73.5,176.7,73.5,176.6,73.5c0.2,0,0.2-0.2,0.2-0.3l-7.6-22.1c0,0-0.1-0.1-0.1-0.1
		c0,0-0.1,0-0.1,0l-50.9,17.4c-0.1,0-0.2,0.1-0.1,0.2c0,0.1,0.1,0.2,0.2,0.1l50.7-17.4l7.5,21.9C176.5,73.5,176.5,73.5,176.6,73.5z"
		/>
	<path class="st2" d="M127.9,88.1C128,88.1,128,88.1,127.9,88.1l51-15.9c0.1,0,0.2-0.1,0.1-0.2c0-0.1-0.1-0.2-0.2-0.1l-50.9,15.9
		c-0.1,0-0.2,0.1-0.1,0.2C127.8,88.1,127.8,88.1,127.9,88.1z"/>
	<path class="st2" d="M138,69.9l-0.2-0.7c0,0,0,0,0,0c-0.3-0.9-0.1-1.9,0.6-2.5c0.2-0.2,0.5-0.4,0.9-0.6l11.3-3.9
		c1.3-0.4,2.6,0.2,3.1,1.5l0.2,0.7c0.1,0.3,0.1,0.6,0.1,0.9c0,1-0.7,1.9-1.6,2.2l-11.3,3.9c-0.3,0.1-0.5,0.1-0.8,0.1
		C139.3,71.5,138.4,70.9,138,69.9z M150.7,62.6l-11.3,3.9c-0.3,0.1-0.5,0.3-0.7,0.5c-0.6,0.5-0.8,1.4-0.5,2.1l0.2,0.7
		c0.4,1.1,1.5,1.6,2.6,1.3l11.3-3.9c0.8-0.3,1.3-1,1.4-1.9c0-0.3,0-0.5-0.1-0.7l-0.2-0.7c-0.3-0.8-1.1-1.4-1.9-1.4
		C151.2,62.5,150.9,62.5,150.7,62.6z M138,69.1L138,69.1L138,69.1z"/>
	<path class="st2" d="M146.8,92l-0.2-0.7c0,0,0,0,0,0c-0.3-0.9-0.1-1.9,0.6-2.5c0.2-0.2,0.5-0.4,0.9-0.6l11.3-3.9
		c1.3-0.4,2.6,0.2,3.1,1.5l0.2,0.7c0.1,0.3,0.1,0.6,0.1,0.9c0,1-0.7,1.9-1.6,2.2l-11.3,3.9c-0.3,0.1-0.5,0.1-0.8,0.1
		C148,93.6,147.1,93,146.8,92z M159.4,84.7l-11.3,3.9c-0.3,0.1-0.5,0.3-0.7,0.5c-0.6,0.5-0.8,1.4-0.5,2.1l0.2,0.7
		c0.4,1.1,1.5,1.6,2.6,1.3l11.3-3.9c0.8-0.3,1.3-1,1.4-1.9c0-0.2,0-0.5-0.1-0.7L162,86c-0.3-0.8-1.1-1.4-1.9-1.4
		C159.9,84.6,159.7,84.6,159.4,84.7z M146.7,91.2L146.7,91.2L146.7,91.2z"/>
	<path class="st2" d="M177.3,156.4c0,0,0.1,0,0.1,0c0.1-0.1,0.1-0.2,0.1-0.3c-4.7-7.3-22.3-26.1-22.4-26.3c-0.1-0.1-0.2-0.1-0.3,0
		c-0.1,0.1-0.1,0.2,0,0.3c0.2,0.2,17.7,19,22.4,26.3C177.2,156.4,177.3,156.4,177.3,156.4z"/>
	<path class="st2" d="M97.9,140.3c0.1,0,0.2-0.1,0.2-0.2c3.1-14,7.5-19,10.6-20.7c2.5-1.4,4.4-0.7,4.4-0.7c0.1,0,0.2,0,0.2-0.1
		c0-0.1,0-0.2-0.1-0.2c-0.1,0-2-0.7-4.7,0.7c-3.2,1.7-7.7,6.8-10.8,21C97.6,140.1,97.7,140.2,97.9,140.3
		C97.8,140.3,97.8,140.3,97.9,140.3z"/>
	<path class="st2" d="M105.5,121.9c0,0,0.1,0,0.1,0c0.1-0.1,0.1-0.2,0-0.3c-0.1-0.1-6.9-9.7-9.7-19.4c0-0.1-0.1-0.2-0.2-0.1
		c-0.1,0-0.2,0.1-0.1,0.2c2.7,9.8,9.6,19.5,9.7,19.6C105.4,121.9,105.4,121.9,105.5,121.9z"/>
	<path class="st2" d="M121.6,40.2c0.3,0.3,0.8,0.5,1.4,0.3c0.7-0.2,1-0.9,0.9-1.4c0,0,0-0.1,0-0.1l-0.1,0.1l-1.7,0.8L121.6,40.2z"/>
	<polygon class="st16" points="126.4,40.7 121.2,42 119.8,41.5 122.1,39.9 125.5,38.2 	"/>
	<polygon class="st8" points="128.6,43.9 124.3,34.8 126.7,41.7 	"/>
	<polygon class="st17" points="119,42 121.6,40.2 121.6,40.2 122.1,39.9 123.7,39.1 123.8,39 125.7,38.1 125.6,36.3 121.1,39.7 	"/>
	<path class="st2" d="M129.2,50.8c0.1,0,0.2-0.1,0.2-0.2l0.5-5.4c0-0.1,0-0.1,0-0.1l-1-1.2l-2.8-6c0-0.1-0.2-0.1-0.3-0.1
		c-0.1,0-0.1,0.2-0.1,0.3l2.8,6c0,0,0,0,0,0l1,1.2l-0.5,5.3C129,50.7,129,50.8,129.2,50.8C129.1,50.8,129.1,50.8,129.2,50.8z"/>
	<polygon class="st25" points="174,73.6 163.2,56.3 150.2,58.8 169.8,51.9 184.9,96.2 181.4,93.4 	"/>
	<path class="st25" d="M165.8,84.3l7.7-1.7c0.6-0.1,0.9-0.8,0.7-1.3l-0.6-1.3c-0.2-0.5-0.8-0.7-1.3-0.5l-7.2,3
		c-0.6,0.2-0.8,0.9-0.4,1.4l0,0C165.1,84.2,165.5,84.4,165.8,84.3z"/>
	<circle class="st25" cx="162.7" cy="68.7" r="3.2"/>
	<path class="st25" d="M168.3,92.8c0,0.4,0.3,0.8,0.8,0.8c0.4,0,0.8-0.3,0.8-0.8c0-0.4-0.3-0.8-0.8-0.8
		C168.7,92,168.3,92.4,168.3,92.8z"/>
	<path class="st2" d="M100.6,160.3C100.7,160.3,100.7,160.3,100.6,160.3l19.5-8.6c0.1,0,0.1-0.2,0.1-0.3c0-0.1-0.2-0.1-0.3-0.1
		l-19.4,8.5c-0.1,0-0.1,0.2-0.1,0.3C100.5,160.2,100.6,160.3,100.6,160.3z"/>
	<path class="st2" d="M163.2,269.5C163.2,269.5,163.2,269.5,163.2,269.5c0.2,0,0.2-0.1,0.2-0.3l-1.1-3.7l12.9-3.4
		c0.1,0,0.2-0.1,0.1-0.2c0-0.1-0.1-0.2-0.2-0.1l-13.1,3.5c-0.1,0-0.1,0-0.1,0.1c0,0,0,0.1,0,0.2l1.2,3.9
		C163,269.4,163.1,269.5,163.2,269.5z"/>
	<path class="st2" d="M69.7,263.2c0.1,0,0.2-0.1,0.2-0.1c0-0.1,0-0.2-0.1-0.2c-0.4-0.1-9.1-4.1-12.4-5.6c-0.1,0-0.1,0-0.2,0
		c-0.1,0-0.1,0.1-0.1,0.2v1.1c0,0.1,0.1,0.2,0.2,0.2c0.1,0,0.2-0.1,0.2-0.2v-0.8C60,258.9,69.5,263.2,69.7,263.2
		C69.7,263.2,69.7,263.2,69.7,263.2z"/>
	<path class="st2" d="M175.1,248.3c0.1,0,0.2-0.1,0.2-0.2l5.9-46.2c0-0.1-0.1-0.2-0.2-0.2c-0.1,0-0.2,0.1-0.2,0.2l-5.9,46.2
		C174.9,248.2,174.9,248.3,175.1,248.3C175,248.3,175.1,248.3,175.1,248.3z"/>
	<path class="st19" d="M128.7,133.9c0.9,0.3,1.8,0.6,2.7,0.9l23.5-4.9c0,0,0,0,0,0l3.7-0.9l-2.8-3.5l-3.4-4.3l-4-5
		c-1.7,0.4-3.4,0.9-4.9,1.2c-2.9,0.6-5.9,1.2-8.8,1.8c-1.1,0.2-2.3,0.5-3.2,1.2c0,0,0,0,0,0c-1.1,0.9-0.2,2.6,1.2,2.3
		c1.8-0.4,3.7-0.3,5.5,0.2c1.6,0.5,1.6,2.7,0,3.2c-3.1,0.9-6.3,1.8-9.4,2.7l-0.1,0C126.6,129.7,126.5,133,128.7,133.9z"/>
	<circle class="st19" cx="122" cy="128.1" r="1.5"/>
	<path class="st19" d="M121.8,120.2c0,0.4,0.3,0.8,0.8,0.8c0.4,0,0.8-0.3,0.8-0.8c0-0.4-0.3-0.8-0.8-0.8
		C122.2,119.5,121.8,119.8,121.8,120.2z"/>
	<path class="st2" d="M91.7,193.6c0.1,0,0.2-0.1,0.2-0.2v-10.6c0-0.1-0.1-0.2-0.2-0.2c-0.1,0-0.2,0.1-0.2,0.2v10.6
		C91.5,193.5,91.6,193.6,91.7,193.6z"/>
</g>
<g>
	<g>
		<path class="st26" d="M268.9,152.7c0,0-30.7,53.7,1.7,116.6c29.8,18.8,69,5.9,69,5.9s24.5-70.9,0.8-122
			C340.4,153.2,311.6,140.3,268.9,152.7z"/>
		<path class="st27" d="M270.6,269.4c6.3,4,13.1,6.6,19.8,8.1c31.4-51.6,0.2-109.5,0.2-109.5l-15.9-3.2l-10.9,89.1
			C265.7,259,267.9,264.1,270.6,269.4z"/>
		<g>
			<g>
				<path class="st28" d="M281.1,162.8c-0.6,4.5-1.1,9-1.5,13.5c-0.5,4.5-0.8,9-1.1,13.6c-0.6,9-1,18.1-0.9,27.1
					c0,4.5,0.1,9,0.4,13.6c0.2,4.5,0.7,9,1.2,13.5c0.6,4.5,1.3,9,2.3,13.4c1,4.4,2.2,8.8,3.7,13.1c-1.9-4.1-3.3-8.5-4.6-12.9
					c-1.2-4.4-2.1-8.9-2.8-13.4c-1.4-9-2-18.1-2-27.2c-0.1-9.1,0.4-18.2,1.3-27.3c0.4-4.5,1-9,1.6-13.5
					C279.4,171.7,280.1,167.2,281.1,162.8z"/>
			</g>
			<g>
				<path class="st28" d="M302.5,164.8l-0.2,13.6c-0.1,4.5-0.2,9.1-0.2,13.6c-0.1,9.1-0.2,18.1-0.1,27.2c0,9.1,0.2,18.1,0.6,27.2
					l0.1,3.4l0.2,3.4c0.2,2.3,0.2,4.5,0.5,6.8c0.2,2.3,0.4,4.5,0.6,6.8c0.3,2.2,0.6,4.5,0.8,6.8c-0.4-2.2-0.9-4.5-1.3-6.7
					c-0.4-2.2-0.6-4.5-1-6.8c-0.3-2.3-0.5-4.5-0.7-6.8l-0.3-3.4l-0.2-3.4c-0.4-4.5-0.5-9.1-0.7-13.6c-0.1-4.5-0.2-9.1-0.2-13.6
					c0-9.1,0.1-18.2,0.5-27.2c0.2-4.5,0.4-9.1,0.7-13.6C301.8,173.9,302.1,169.3,302.5,164.8z"/>
			</g>
			<g>
				<path class="st28" d="M325.1,165.9c1,4.4,1.7,8.9,2.4,13.4c0.7,4.5,1.2,9,1.7,13.6c1,9.1,1.7,18.1,2,27.3
					c0.1,2.3,0.2,4.6,0.2,6.8c0,2.3,0.1,4.6,0.1,6.8c-0.1,4.6,0,9.1-0.3,13.7c-0.1,2.3-0.2,4.6-0.3,6.8l-0.5,6.8
					c-0.2,2.3-0.4,4.5-0.6,6.8c-0.2,2.3-0.5,4.5-0.7,6.8c0.1-4.6,0.5-9.1,0.5-13.6l0.2-6.8c0.1-2.3,0-4.5,0.1-6.8
					c0.1-9.1,0-18.2-0.4-27.2c-0.3-9.1-0.9-18.1-1.6-27.2c-0.3-4.5-0.8-9.1-1.3-13.6C326.2,174.9,325.7,170.4,325.1,165.9z"/>
			</g>
		</g>
		<path class="st29" d="M260.7,244.4c0,0,53.9,18.2,86.2,1.4c1.9,5-2.2,11.2-2.2,11.2s-29.5,11.8-80.2-1.8
			C264.5,255.1,259.8,249,260.7,244.4z"/>
		<path class="st29" d="M261.1,172.5c0,0,41.2,18.6,86.2,1.7c3.2,5.9,2.2,11.7,2.2,11.7s-44.1,18.7-91.3-1.5
			C257.2,178.4,261.1,172.5,261.1,172.5z"/>
		<g>
			<path class="st28" d="M268.9,152.7c0.1,0.8,0.7,1.4,1.3,1.9c0.3,0.3,0.6,0.5,0.9,0.7c0.3,0.2,0.6,0.4,1,0.6
				c1.4,0.7,2.9,1.2,4.4,1.7c3,0.8,6.1,1.4,9.2,1.8c6.2,0.8,12.5,1.1,18.8,1.2c6.3,0.1,12.6,0,18.8-0.7c3.1-0.3,6.2-0.8,9.2-1.6
				c3-0.8,6.1-1.7,8.6-3.7c-1.1,1.2-2.5,2-3.9,2.7c-1.4,0.7-2.9,1.3-4.4,1.8c-3,1-6.2,1.7-9.3,2.1c-6.3,1-12.7,1.2-19,1.1
				c-6.3-0.2-12.7-0.5-19-1.6c-3.1-0.5-6.3-1.3-9.3-2.3c-1.5-0.6-3-1.2-4.3-2.1c-0.3-0.2-0.7-0.4-1-0.7c-0.3-0.2-0.6-0.5-0.9-0.8
				C269.5,154.3,269,153.6,268.9,152.7z"/>
		</g>
	</g>
	<g>
		<path class="st30" d="M280,167.4c0,0,28.1,49.1-1.5,106.6c-27.2,17.2-63.1,5.4-63.1,5.4s-22.4-64.8-0.8-111.5
			C214.6,167.8,240.9,156,280,167.4z"/>
		<g>
			<g>
				<path class="st28" d="M268.8,176.6c0.9,4.1,1.5,8.2,2.1,12.3c0.6,4.1,1.1,8.2,1.5,12.4c0.8,8.3,1.2,16.6,1.2,24.9
					c-0.1,8.3-0.6,16.7-1.9,24.9c-0.7,4.1-1.4,8.2-2.5,12.2c-1.1,4-2.4,8-4.2,11.8c1.4-3.9,2.5-7.9,3.4-11.9c0.9-4,1.6-8.1,2.1-12.2
					c0.5-4.1,0.9-8.2,1.1-12.3c0.3-4.1,0.4-8.3,0.4-12.4c0.1-8.3-0.3-16.6-0.8-24.8c-0.3-4.1-0.6-8.3-1-12.4
					C269.8,184.8,269.4,180.7,268.8,176.6z"/>
			</g>
			<g>
				<path class="st28" d="M249.3,178.4c0.4,4.1,0.7,8.3,1,12.4c0.2,4.1,0.4,8.3,0.6,12.4c0.4,8.3,0.5,16.6,0.5,24.9
					c0,4.2-0.1,8.3-0.2,12.5c-0.2,4.2-0.3,8.3-0.7,12.5c-0.1,2.1-0.3,4.1-0.5,6.2c-0.2,2.1-0.4,4.1-0.6,6.2
					c-0.3,2.1-0.6,4.1-0.9,6.2c-0.4,2-0.8,4.1-1.2,6.1c0.2-2.1,0.5-4.1,0.7-6.2c0.2-2.1,0.4-4.1,0.5-6.2c0.2-2.1,0.3-4.1,0.4-6.2
					c0.1-2.1,0.2-4.1,0.3-6.2c0.3-8.3,0.5-16.6,0.5-24.9c0.1-8.3,0-16.6-0.1-24.9c0-4.1-0.1-8.3-0.2-12.4L249.3,178.4z"/>
			</g>
			<g>
				<path class="st28" d="M228.6,179.4c-0.6,4.1-1.1,8.3-1.5,12.4c-0.4,4.1-0.8,8.3-1.2,12.4c-0.6,8.3-1.2,16.6-1.5,24.9
					c-0.3,8.3-0.4,16.6-0.4,24.9c0,2.1,0,4.2,0.1,6.2l0.2,6.2c0.1,4.2,0.4,8.3,0.5,12.5c-0.2-2.1-0.5-4.1-0.7-6.2
					c-0.2-2.1-0.4-4.1-0.6-6.2l-0.4-6.2c-0.1-2.1-0.2-4.2-0.3-6.2c-0.2-4.2-0.2-8.3-0.3-12.5c0-2.1,0.1-4.2,0.1-6.2
					c0-2.1,0.1-4.2,0.2-6.2c0.3-8.3,0.9-16.6,1.8-24.9c0.5-4.1,1-8.3,1.6-12.4C227,187.6,227.7,183.4,228.6,179.4z"/>
			</g>
		</g>
		<path class="st29" d="M287.5,251.2c0,0-49.3,16.6-78.8,1.3c-1.7,4.6,2,10.2,2,10.2s27,10.7,73.3-1.7
			C284,260.9,288.3,255.5,287.5,251.2z"/>
		<path class="st29" d="M287.2,185.5c0,0-37.7,17-78.8,1.6c-3,5.4-2,10.7-2,10.7s40.3,17.1,83.5-1.3
			C290.7,190.8,287.2,185.5,287.2,185.5z"/>
		<g>
			<path class="st28" d="M280,167.4c0,0.7-0.5,1.4-1,1.9c-0.3,0.3-0.5,0.5-0.8,0.7c-0.3,0.2-0.6,0.5-0.9,0.6c-1.2,0.8-2.6,1.4-4,1.9
				c-2.8,1-5.6,1.6-8.5,2.1c-5.7,1-11.5,1.3-17.3,1.5c-5.8,0.1-11.6-0.1-17.4-1c-2.9-0.4-5.7-1.1-8.5-2c-1.4-0.4-2.7-1-4-1.7
				c-1.3-0.7-2.6-1.4-3.6-2.5c2.3,1.8,5.1,2.7,7.8,3.4c2.8,0.7,5.6,1.2,8.5,1.5c5.7,0.6,11.4,0.7,17.2,0.6
				c5.7-0.1,11.5-0.4,17.2-1.1c2.8-0.4,5.7-0.9,8.4-1.6c1.4-0.4,2.7-0.8,4-1.5c0.3-0.1,0.6-0.3,0.9-0.5c0.3-0.2,0.6-0.4,0.8-0.6
				C279.3,168.7,279.8,168.1,280,167.4z"/>
		</g>
	</g>
	<g>
		<g class="st31">
			<path class="st2" d="M318.6,144c2.4,0.2,4.6-0.6,6.3-2.4c2.4-2.6,3.4-6.8,2.6-11.2c-0.4-2.6-1.6-4.4-3.3-5.4
				c-2.8-1.6-6.2-0.5-6.3-0.4l1,2.9c0,0,2.2-0.7,3.8,0.2c0.9,0.6,1.6,1.7,1.8,3.3c0.6,3.5-0.1,6.7-1.8,8.6c-0.7,0.8-1.9,1.6-3.7,1.5
				L318.6,144z"/>
		</g>
		<path class="st32" d="M295.5,153.7c0,0,20.2,1.5,25.9,0.6c2.1-21.7-0.2-38.7-0.2-38.7s-16.6-1.4-26.2,0.6
			C294.3,136,295.5,153.7,295.5,153.7z"/>
		<path class="st33" d="M297.2,131.6c0,0-0.5,14.7-0.4,17.2c0.1,2.4,2.7,3,6.7,3.2s15.5,1.1,15.8-0.6c0.3-1.6,1-23.7,1-23.7
			l-22.8,0.3L297.2,131.6z"/>
		<path class="st34" d="M302.4,125.6c-0.5-0.9,0.6-2,1.6-1.9c1,0.1,1.9,0.8,2.6,1.5c0.7-0.9,1.6-1.9,2.7-2.4
			c1.1-0.5,2.6-0.3,3.3,0.6c0.5-1.1,1.5-1.9,2.7-2c1.2-0.1,2.4,0.4,3.1,1.4c-0.1-0.3,0-0.7,0.2-0.9c0.6,1.2,1.1,2.4,1.2,3.8
			c0.1,1.3-0.2,2.7-1.1,3.7c-1,1-2.4,1.3-3.8,1.4c-3,0.3-5.9-0.2-8.9-0.7c-2.3-0.4-5-0.3-7.3-1.1c-1.5-0.5-2.5-1.9-2.1-3.5
			C297.1,123.3,301.5,123.9,302.4,125.6z"/>
		<g>
			<path class="st35" d="M308,127.9c0.1,3.7,0,7.4-0.2,11.1c-0.2,3.7-0.5,7.3-0.9,11l0,0.3l-0.3,0c-1.4,0-2.9,0-4.4-0.1
				c1.4-0.2,2.9-0.4,4.3-0.6l-0.3,0.3c0.1-3.7,0.3-7.4,0.5-11C307,135.2,307.4,131.5,308,127.9z"/>
		</g>
		<g>
			<g>
				<path class="st35" d="M314.3,128.6c0.3,3.7,0.3,7.4,0.3,11.1c-0.1,3.7-0.2,7.4-0.5,11.1l0,0.3l-0.3-0.1
					c-1.1-0.2-2.2-0.4-3.3-0.7c1.1,0,2.2,0.1,3.3,0.1l-0.3,0.3c-0.1-3.7-0.1-7.4,0-11.1C313.7,136,313.9,132.3,314.3,128.6z"/>
			</g>
			<g>
				<path class="st35" d="M300.3,127.5c0.1,1.9,0.2,3.8,0.2,5.6c0,1.9,0,3.7,0,5.6c0,1.9-0.1,3.7-0.2,5.6c-0.1,1.9-0.2,3.7-0.4,5.6
					l0,0.3l-0.2,0c-1-0.1-2-0.2-2.9-0.3c1-0.1,2-0.1,2.9-0.2l-0.2,0.2c-0.1-1.9-0.1-3.7-0.1-5.6c0-1.9,0.1-3.7,0.1-5.6
					c0.1-1.9,0.2-3.7,0.3-5.6C299.9,131.2,300.1,129.3,300.3,127.5z"/>
			</g>
		</g>
	</g>
	<g>
		<path class="st32" d="M222.4,168.2c0,0,20.2,1.5,25.9,0.6c2.1-21.7-0.2-38.7-0.2-38.7s-16.6-1.4-26.2,0.6
			C221.1,150.5,222.4,168.2,222.4,168.2z"/>
		<path class="st33" d="M224.1,146.1c0,0-0.5,14.7-0.4,17.2c0.1,2.4,2.7,3,6.7,3.2c4.1,0.2,15.5,1.1,15.8-0.6c0.3-1.6,1-23.7,1-23.7
			l-22.8,0.3L224.1,146.1z"/>
		<path class="st34" d="M229.3,140c-0.5-0.9,0.6-2,1.6-1.9c1,0.1,1.9,0.8,2.6,1.5c0.7-0.9,1.6-1.9,2.7-2.4c1.1-0.5,2.6-0.3,3.3,0.6
			c0.5-1.1,1.5-1.9,2.7-2c1.2-0.1,2.4,0.4,3.1,1.4c-0.1-0.3,0-0.7,0.2-0.9c0.6,1.2,1.1,2.4,1.2,3.8c0.1,1.3-0.2,2.7-1.1,3.7
			c-1,1-2.4,1.3-3.8,1.4c-3,0.3-5.9-0.2-8.9-0.7c-2.3-0.4-5-0.3-7.3-1.1c-1.5-0.5-2.5-1.9-2.1-3.5C224,137.8,228.4,138.4,229.3,140z
			"/>
		<g>
			<path class="st35" d="M234.8,142.3c0.1,3.7,0,7.4-0.2,11.1c-0.2,3.7-0.5,7.3-0.9,11l0,0.3l-0.3,0c-1.4,0-2.9,0-4.4-0.1
				c1.4-0.2,2.9-0.4,4.3-0.6l-0.3,0.3c0.1-3.7,0.3-7.4,0.5-11C233.9,149.7,234.2,146,234.8,142.3z"/>
		</g>
		<g>
			<g>
				<path class="st35" d="M241.2,143.1c0.3,3.7,0.3,7.4,0.3,11.1c-0.1,3.7-0.2,7.4-0.5,11.1l0,0.3l-0.3-0.1
					c-1.1-0.2-2.2-0.4-3.3-0.7c1.1,0,2.2,0.1,3.3,0.1l-0.3,0.3c-0.1-3.7-0.1-7.4,0-11.1C240.5,150.5,240.7,146.8,241.2,143.1z"/>
			</g>
			<g>
				<path class="st35" d="M227.2,142c0.1,1.9,0.2,3.8,0.2,5.6c0,1.9,0,3.7,0,5.6c0,1.9-0.1,3.7-0.2,5.6c-0.1,1.9-0.2,3.7-0.4,5.6
					l0,0.3l-0.2,0c-1-0.1-2-0.2-2.9-0.3c1-0.1,2-0.1,2.9-0.2l-0.2,0.2c-0.1-1.9-0.1-3.7-0.1-5.6c0-1.9,0.1-3.7,0.1-5.6
					c0.1-1.9,0.2-3.7,0.3-5.6C226.8,145.7,227,143.8,227.2,142z"/>
			</g>
		</g>
	</g>
	<g>
		<path class="st32" d="M271.8,169.5c0,0-20.2,1.5-25.9,0.6c-2.1-21.7,0.2-38.7,0.2-38.7s16.6-1.4,26.2,0.6
			C273,151.9,271.8,169.5,271.8,169.5z"/>
		<path class="st33" d="M270.1,147.4c0,0,0.5,14.7,0.4,17.2c-0.1,2.4-2.7,3-6.7,3.2c-4.1,0.2-15.5,1.1-15.8-0.6
			c-0.3-1.6-1-23.7-1-23.7l22.8,0.3L270.1,147.4z"/>
		<path class="st34" d="M264.9,141.4c0.5-0.9-0.6-2-1.6-1.9c-1,0.1-1.9,0.8-2.6,1.5c-0.7-0.9-1.6-1.9-2.7-2.4
			c-1.1-0.5-2.6-0.3-3.3,0.6c-0.5-1.1-1.5-1.9-2.7-2c-1.2-0.1-2.4,0.4-3.1,1.4c0.1-0.3,0-0.7-0.2-0.9c-0.6,1.2-1.1,2.4-1.2,3.8
			c-0.1,1.3,0.2,2.7,1.1,3.7c1,1,2.4,1.3,3.8,1.4c3,0.3,5.9-0.2,8.9-0.7c2.3-0.4,5-0.3,7.3-1.1c1.5-0.5,2.5-1.9,2.1-3.5
			C270.2,139.1,265.8,139.7,264.9,141.4z"/>
		<g>
			<path class="st35" d="M259.3,143.7c0.6,3.7,1,7.3,1.2,11c0.3,3.7,0.5,7.4,0.5,11l-0.3-0.3c1.4,0.2,2.9,0.3,4.3,0.6
				c-1.5,0.1-2.9,0.1-4.4,0.1l-0.3,0l0-0.3c-0.4-3.7-0.7-7.3-0.9-11C259.3,151.1,259.2,147.4,259.3,143.7z"/>
		</g>
		<g>
			<g>
				<path class="st35" d="M253,144.4c0.4,3.7,0.7,7.4,0.8,11.1c0.1,3.7,0.1,7.4,0,11.1l-0.3-0.3c1.1,0,2.2-0.1,3.3-0.1
					c-1.1,0.3-2.2,0.4-3.3,0.7l-0.3,0.1l0-0.3c-0.3-3.7-0.5-7.4-0.5-11.1C252.7,151.8,252.7,148.1,253,144.4z"/>
			</g>
			<g>
				<path class="st35" d="M266.9,143.3c0.2,1.8,0.4,3.7,0.6,5.5c0.1,1.9,0.2,3.7,0.3,5.6c0.1,1.9,0.1,3.7,0.1,5.6
					c0,1.9,0,3.7-0.1,5.6l-0.2-0.2c1,0.1,2,0.1,2.9,0.2c-1,0.1-2,0.2-2.9,0.3l-0.2,0l0-0.3c-0.2-1.9-0.3-3.7-0.4-5.6
					c-0.1-1.9-0.2-3.7-0.2-5.6c-0.1-1.9-0.1-3.7,0-5.6C266.8,147.1,266.8,145.2,266.9,143.3z"/>
			</g>
		</g>
	</g>
</g>
</svg>
