<?xml version="1.0" encoding="utf-8"?>
<!-- Generator: Adobe Illustrator 25.4.1, SVG Export Plug-In . SVG Version: 6.00 Build 0)  -->
<svg version="1.1" id="Layer_1" xmlns="http://www.w3.org/2000/svg" xmlns:xlink="http://www.w3.org/1999/xlink" x="0px" y="0px"
	 viewBox="0 0 406 306" style="enable-background:new 0 0 406 306;" xml:space="preserve">
<style type="text/css">
	.st0{fill:#F7F7F7;}
	.st1{fill:#EDEDED;}
	.st2{fill:none;stroke:#D4D4D4;stroke-width:4.6007;stroke-linecap:square;stroke-miterlimit:10;}
	.st3{fill:none;stroke:#666666;stroke-width:3.6522;stroke-linecap:square;stroke-miterlimit:10;}
	.st4{opacity:0.75;fill:#CD2919;}
	.st5{fill:#FFFFFF;}
	.st6{fill:#DF7C57;}
	.st7{opacity:0.25;fill:#CD2919;}
	.st8{opacity:0.2;fill:#FFFFFF;}
	.st9{opacity:0.1;fill:#CD2919;}
	.st10{opacity:0.3;fill:#FFFFFF;}
	.st11{fill:url(#SVGID_1_);}
	.st12{fill:url(#SVGID_00000116938155086989541110000011464552093112708267_);}
	.st13{fill:#262626;}
</style>
<g>
	<path class="st0" d="M354.7,107.1H99.2c-7.1,0-12.8,5.7-12.8,12.8v97.5c0,7.1,5.7,12.8,12.8,12.8h193.7l13.6,19.9l14.2-19.9h34
		c7.1,0,12.8-5.7,12.8-12.8v-97.5C367.5,112.9,361.7,107.1,354.7,107.1z"/>
</g>
<g>
	<rect x="237.4" y="146.9" class="st1" width="120.1" height="40.2"/>
	<line class="st2" x1="239.8" y1="189.6" x2="355" y2="189.6"/>
	<g>
		<g>
			<line class="st3" x1="256.2" y1="159.2" x2="256.2" y2="176.2"/>
			<line class="st3" x1="263.5" y1="163.3" x2="248.9" y2="172.1"/>
			<line class="st3" x1="248.9" y1="163.3" x2="263.5" y2="172.1"/>
		</g>
		<g>
			<line class="st3" x1="283.4" y1="159.2" x2="283.4" y2="176.2"/>
			<line class="st3" x1="290.6" y1="163.3" x2="276.1" y2="172.1"/>
			<line class="st3" x1="276.1" y1="163.3" x2="290.6" y2="172.1"/>
		</g>
		<g>
			<line class="st3" x1="310.6" y1="159.2" x2="310.6" y2="176.2"/>
			<line class="st3" x1="317.8" y1="163.3" x2="303.3" y2="172.1"/>
			<line class="st3" x1="303.3" y1="163.3" x2="317.8" y2="172.1"/>
		</g>
		<g>
			<line class="st3" x1="337.7" y1="159.2" x2="337.7" y2="176.2"/>
			<line class="st3" x1="345" y1="163.3" x2="330.5" y2="172.1"/>
			<line class="st3" x1="330.5" y1="163.3" x2="345" y2="172.1"/>
		</g>
	</g>
</g>
<g>
	<g>
		<path class="st4" d="M76.1,89.9l0,3l-27.8,0.1l0-3.3c0-2.9,2.2-5.3,5-5.6c0.2-0.1,0.5-0.1,0.7-0.1l3.1,0l0,0l1.2,0l10.3,0.1l1.8,0
			C73.5,84.2,76.1,86.8,76.1,89.9z"/>
		<polygon class="st4" points="66.7,58 68.6,84.2 58.3,84.1 57.1,84.1 55.8,84.1 57.9,58.9 57.9,58 58.8,58 		"/>
		<path class="st4" d="M66.4,56.4l-8.2,0c-0.4,0-0.8,0.3-0.8,0.8l0,0c0,0.4,0.3,0.8,0.8,0.8l8.2,0c0.4,0,0.8-0.3,0.8-0.8l0,0
			C67.2,56.8,66.8,56.4,66.4,56.4z"/>
		<path class="st5" d="M65.9,54.6l-7.1,0c-0.3,0-0.5,0.2-0.5,0.5l0,1.3l8.2,0l0-1.3C66.4,54.8,66.2,54.6,65.9,54.6z"/>
	</g>
	<g>
		<path class="st4" d="M114.9,89.4l0,3.4l-0.3,0l0,0l-27.4,0.1l0-3.7c0-3.2,2.6-5.7,5.7-5.7l16.3,0.1
			C112.4,83.7,114.9,86.2,114.9,89.4z"/>
		<polygon class="st4" points="107.5,83.6 94.6,83.6 96.8,57.4 105.6,57.5 		"/>
		<path class="st4" d="M105.3,55.9l-8.2,0c-0.4,0-0.8,0.3-0.8,0.8l0,0c0,0.4,0.3,0.8,0.8,0.8l8.2,0c0.4,0,0.8-0.3,0.8-0.8l0,0
			C106,56.3,105.7,55.9,105.3,55.9z"/>
		<path class="st5" d="M104.7,54.1l-7.1,0c-0.3,0-0.5,0.2-0.5,0.5l0,1.3l8.2,0l0-1.3C105.3,54.3,105,54.1,104.7,54.1z"/>
	</g>
	<polygon class="st6" points="181.5,86.2 181.5,94.3 181.6,104.4 181.6,121.4 181.7,152.4 181.7,152.4 181.7,152.7 181.6,152.7 
		168.1,152.8 22.8,153.3 22.6,89.1 22.6,86.8 27.9,86.8 55.7,86.7 66.7,86.7 94.5,86.6 105.6,86.5 126.5,86.4 133,86.4 133,86.4 
		133.4,86.4 144.5,86.4 148.3,86.3 153.2,86.3 172.2,86.3 	"/>
	
		<rect x="22.9" y="153" transform="matrix(1 -3.785247e-03 3.785247e-03 1 -0.7045 0.389)" class="st6" width="158.9" height="66.5"/>
	<path class="st7" d="M122.7,100.9l0,2.1c0,3.5-2.8,6.3-6.3,6.3l-33.9,0.1c-2.7,0-5-1.7-5.9-4.1c-0.3-0.7-0.4-1.4-0.4-2.2l0-2.1
		c0-3.5,2.8-6.3,6.3-6.3l33.9-0.1c1,0,1.8,0.2,2.7,0.6C121.2,96.2,122.7,98.4,122.7,100.9z"/>
	<path class="st7" d="M119.9,168.5l0,2.1c0,3.5-2.8,6.3-6.3,6.3L79.7,177c-2.7,0-5-1.7-5.9-4c-0.3-0.7-0.5-1.5-0.5-2.2l0-2.1
		c0-3.5,2.8-6.3,6.3-6.3l33.9-0.1c1,0,1.8,0.2,2.7,0.6C118.4,163.7,119.9,165.9,119.9,168.5z"/>
	<path class="st4" d="M119,95.2c0.3,0.7,0.4,1.4,0.4,2.2l0,2.1c0,3.5-2.8,6.3-6.3,6.3L79.3,106c-1,0-1.8-0.2-2.7-0.6
		c-0.3-0.7-0.4-1.4-0.4-2.2l0-2.1c0-3.5,2.8-6.3,6.3-6.3l33.9-0.1C117.3,94.6,118.2,94.8,119,95.2z"/>
	<path class="st4" d="M116.2,162.8c0.3,0.7,0.4,1.4,0.4,2.2l0,2.1c0,3.5-2.8,6.3-6.3,6.3l-33.9,0.1c-0.9,0-1.8-0.2-2.6-0.6
		c-0.3-0.7-0.5-1.5-0.5-2.2l0-2.1c0-3.5,2.8-6.3,6.3-6.3l33.9-0.1C114.5,162.2,115.4,162.4,116.2,162.8z"/>
	<polygon class="st4" points="181.7,152.4 181.6,152.7 180.7,155.1 22.8,156.8 22.8,153.3 	"/>
	<g>
		<path class="st4" d="M153.2,86.3l-4.9,0l-3.8,0l-11.1,0l-0.3,0l0,0l-6.5,0c0.9-2,2.9-3.4,5.2-3.4l16.4,0.1
			C150.3,83.1,152.3,84.4,153.2,86.3z"/>
		<polygon class="st4" points="144.4,57 146.3,83.1 133.5,83.1 133.9,78.7 133.9,78.4 135.7,56.9 139.5,56.9 139.5,56.9 		"/>
		<path class="st4" d="M144.1,55.4l-8.2,0c-0.4,0-0.8,0.3-0.8,0.8l0,0c0,0.4,0.3,0.8,0.8,0.8l8.2,0c0.4,0,0.8-0.3,0.8-0.8l0,0
			C144.9,55.7,144.6,55.4,144.1,55.4z"/>
		<path class="st5" d="M143.6,53.6l-7.1,0c-0.3,0-0.5,0.2-0.5,0.5l0,1.3l8.2,0l0-1.3C144.1,53.8,143.9,53.6,143.6,53.6z"/>
	</g>
	<g>
		<path class="st4" d="M55.7,84l0,2.7l-20.6,0.1l-7.2,0l0-2.9c0-3.2,2.6-5.7,5.7-5.7l1.8,0l0,0l2,0l10.8,0.1l1.8,0
			C53.1,78.3,55.7,80.9,55.7,84z"/>
		<polygon class="st4" points="46.3,52.1 48.2,78.3 37.4,78.2 35.4,78.2 35.4,78.2 35.6,76 37.3,54.5 37.5,52.3 37.5,52.1 		"/>
		<path class="st4" d="M46,50.6l-8.2,0c-0.4,0-0.8,0.3-0.8,0.8l0,0c0,0.4,0.3,0.8,0.8,0.8l8.2,0c0.4,0,0.8-0.3,0.8-0.8l0,0
			C46.8,50.9,46.4,50.6,46,50.6z"/>
		<path class="st5" d="M45.5,48.7l-7.1,0c-0.3,0-0.5,0.2-0.5,0.5l0,1.3l8.2,0l0-1.3C46,49,45.8,48.7,45.5,48.7z"/>
	</g>
	<g>
		<path class="st4" d="M94.5,83.5l0,3l-27.8,0.1l0-3.3c0-0.8,0.2-1.6,0.5-2.3c0.6-1.2,1.6-2.3,2.8-2.8c0.7-0.3,1.5-0.5,2.4-0.5
			l1.8,0l1.7,0l2.1,0l9,0l1.8,0C92,77.8,94.5,80.4,94.5,83.5z"/>
		<polygon class="st4" points="85.2,51.6 87.1,77.8 78.1,77.7 76,77.7 74.2,77.7 76.3,52.8 76.4,51.6 77,51.6 		"/>
		<path class="st4" d="M84.9,50l-8.2,0c-0.4,0-0.8,0.3-0.8,0.8l0,0c0,0.4,0.3,0.8,0.8,0.8l8.2,0c0.4,0,0.8-0.3,0.8-0.8l0,0
			C85.6,50.4,85.3,50.1,84.9,50z"/>
		<path class="st5" d="M84.3,48.2l-7.1,0c-0.3,0-0.5,0.2-0.5,0.5l0,1.3l8.2,0l0-1.3C84.9,48.5,84.6,48.2,84.3,48.2z"/>
	</g>
	<g>
		<path class="st4" d="M133.4,83l0,3.4l-0.3,0l0,0l-27.4,0.1l0-3.7c0-1.7,0.7-3.1,1.8-4.2c1-1,2.4-1.5,3.9-1.5l1.8,0l1.2,0l11.7,0
			l1.8,0C130.9,77.3,133.4,79.8,133.4,83z"/>
		<polygon class="st4" points="124,51.1 125.9,77.2 114.3,77.2 113.1,77.2 115.3,51.1 115.6,51.1 		"/>
		<path class="st4" d="M123.7,49.5l-8.2,0c-0.4,0-0.8,0.3-0.8,0.8l0,0c0,0.4,0.3,0.8,0.8,0.8l8.2,0c0.4,0,0.8-0.3,0.8-0.8l0,0
			C124.5,49.9,124.2,49.5,123.7,49.5z"/>
		<path class="st5" d="M123.2,47.7l-7.1,0c-0.3,0-0.5,0.2-0.5,0.5l0,1.3l8.2,0l0-1.3C123.7,47.9,123.5,47.7,123.2,47.7z"/>
	</g>
	<g>
		<path class="st4" d="M172.2,82.5l0,3.8l-23.9,0.1l-3.8,0l0-4c0-0.4,0-0.7,0.1-1.1c0.5-2.6,2.8-4.6,5.6-4.6l1.8,0l2,0l0,0l10.8,0.1
			l1.8,0C169.7,76.7,172.2,79.3,172.2,82.5z"/>
		<polygon class="st4" points="162.9,50.6 164.8,76.7 154,76.7 154,76.7 152,76.7 154.1,50.5 157.7,50.6 157.7,50.6 		"/>
		<path class="st4" d="M162.6,49l-8.2,0c-0.4,0-0.8,0.3-0.8,0.8l0,0c0,0.4,0.3,0.8,0.8,0.8l8.2,0c0.4,0,0.8-0.3,0.8-0.8l0,0
			C163.4,49.4,163,49,162.6,49z"/>
		<path class="st5" d="M162.1,47.2l-7.1,0c-0.3,0-0.5,0.2-0.5,0.5l0,1.3l8.2,0l0-1.3C162.6,47.4,162.3,47.2,162.1,47.2z"/>
	</g>
	<path class="st8" d="M38.9,52.4l-1.5,25.9l0,0.6l-4.9,2.3l2.6,5.7l-7.2,0l0-2.9c0-3.2,2.6-5.7,5.7-5.7l1.8,0l0.2-2.3l1.8-21.5
		l0.2-2.2L38.9,52.4z"/>
	<path class="st8" d="M54,84.1l3.1,0l0,0l0.2,2.6l-4-2.5C53.5,84.1,53.8,84.1,54,84.1z"/>
	<polygon class="st8" points="59,58 57.1,83.2 57.1,84.1 55.8,84.1 57.9,58.9 57.9,58 58.8,58 	"/>
	<path class="st8" d="M77,51.6l-0.4,24L76,77.7l0,0c-0.7,2.2-2.7,3.7-5,3.5l-3.7-0.2c0.6-1.2,1.6-2.3,2.8-2.8
		c0.7-0.3,1.5-0.5,2.4-0.5l1.8,0l2.1-24.9l0.1-1.3L77,51.6z"/>
	<polygon class="st8" points="97.6,57.5 97.1,81.8 94.5,83.5 96.8,57.4 	"/>
	<path class="st8" d="M115.6,51.1l-1.3,26.1l-6.5,2.3l-0.3-0.8c1-1,2.4-1.5,3.9-1.5l1.8,0l2.2-26.1L115.6,51.1z"/>
	<polygon class="st8" points="139.5,56.9 136.5,57.8 133.9,78.4 135.7,56.9 	"/>
	<path class="st8" d="M157.7,50.6l-3.1,1.1l-0.6,25l0,0l-9.4,4.6c0.5-2.6,2.8-4.6,5.6-4.6l1.8,0l2.2-26.1L157.7,50.6z"/>
	<path class="st9" d="M181.5,86.2l0,8.1l0,10.1c-7.5,2-4.9,10.3,0.1,17l0.1,31l0,0l0,0.3l-0.1,0l-13.5,0.1l-2-0.3l6.4-62.2l-150-1.1
		l0-2.3l5.3,0l27.8-0.1l11.1,0l27.8-0.1l11.1,0l20.9-0.1l6.5,0l0,0l0.3,0l11.1,0l3.8,0l4.9,0l19-0.1L181.5,86.2z"/>
	<path class="st5" d="M24.2,151.3c-0.1,0-0.1,0-0.2,0c-0.3,0-0.6-0.2-0.6-0.5l-0.3-66.5c0-0.1,0.1-0.3,0.2-0.4
		c0.1-0.1,0.2-0.2,0.4-0.2l153-0.6c0.3,0,0.6,0.2,0.6,0.5c0,0.3-0.2,0.6-0.5,0.6L24.4,84.8l0.3,66C24.6,151,24.5,151.2,24.2,151.3z"
		/>
	<path class="st5" d="M168.7,145.2c-0.1,0-0.1,0-0.2,0l-151.6,4.6c-0.3,0-0.6-0.2-0.6-0.5c0-0.3,0.2-0.6,0.5-0.6l151.6-4.6
		c0.3,0,0.6,0.2,0.6,0.5C169.1,144.9,168.9,145.1,168.7,145.2z"/>
	<path class="st5" d="M119.9,112c-0.7,0.2-1.4,0.4-2.2,0.4l-33.9,0.1c-2.9,0-5.4-1.7-6.4-4.4c-0.3-0.8-0.5-1.6-0.5-2.4l0-2.1
		c0-3.8,3.1-6.9,6.8-6.9l33.9-0.1c1,0,2,0.2,2.9,0.7c2.4,1.1,4,3.5,4,6.2c0,0,0,0,0,0l0,2.1C124.5,108.5,122.6,111.1,119.9,112z
		 M81.8,98.1c-2.3,0.8-3.9,2.9-3.9,5.4l0,2.1c0,0.7,0.1,1.4,0.4,2c0.9,2.3,3,3.7,5.4,3.7l33.9-0.1c3.2,0,5.7-2.6,5.7-5.8l0-2.1
		c0-2.2-1.3-4.3-3.4-5.2c-0.8-0.4-1.6-0.6-2.4-0.5l-33.9,0.1C83,97.8,82.4,97.9,81.8,98.1z M123.9,103.4L123.9,103.4L123.9,103.4z"
		/>
	<path class="st5" d="M117,179.5c-0.7,0.2-1.4,0.4-2.2,0.4L80.9,180c-2.8,0-5.4-1.8-6.4-4.4c-0.3-0.7-0.5-1.6-0.5-2.4l0-2.1
		c0-3.8,3-6.9,6.8-6.9l33.9-0.1c1,0,2,0.2,2.9,0.7c2.4,1.1,4,3.5,4,6.2c0,0,0,0,0,0l0,2.1C121.7,176,119.7,178.6,117,179.5z
		 M79,165.6c-2.3,0.8-3.9,2.9-3.9,5.4l0,2.1c0,0.7,0.1,1.4,0.4,2c0.8,2.2,3,3.7,5.4,3.7l33.9-0.1c3.2,0,5.7-2.6,5.7-5.8l0-2.1
		c0-2.3-1.3-4.3-3.3-5.2c-0.8-0.4-1.6-0.6-2.4-0.5l-33.9,0.1C80.2,165.3,79.6,165.4,79,165.6z M121.1,170.9L121.1,170.9L121.1,170.9
		z"/>
	<polygon class="st10" points="31.4,148.9 44.4,92.6 81.5,87.2 22.6,86.8 23.1,219.9 30.1,209.1 	"/>
	<path class="st10" d="M63.2,170.1L41,172.8c-1.7,0.2-3.1-1.2-3-2.9l0.2-4.1c0.1-1.5,1.4-2.6,2.9-2.5l22,1.3
		c1.7,0.1,2.9,1.7,2.5,3.4l0,0C65.3,169.2,64.4,170,63.2,170.1z"/>
	<ellipse transform="matrix(0.9448 -0.3276 0.3276 0.9448 -37.8493 25.6441)" class="st10" cx="57.2" cy="125.2" rx="9" ry="9"/>
	<path class="st10" d="M64.6,195.4c0.4,1.2-0.2,2.4-1.4,2.8c-1.2,0.4-2.4-0.2-2.8-1.4c-0.4-1.2,0.2-2.4,1.4-2.8
		S64.2,194.2,64.6,195.4z"/>
</g>
<g>
	<g>
		<g>
			<g>
				<linearGradient id="SVGID_1_" gradientUnits="userSpaceOnUse" x1="167.9175" y1="133.7376" x2="211.0156" y2="133.7376">
					<stop  offset="0" style="stop-color:#999999"/>
					<stop  offset="0.6666" style="stop-color:#5D5D5D"/>
					<stop  offset="1" style="stop-color:#3D3D3D"/>
				</linearGradient>
				<path class="st11" d="M211,153.7h-6.3v-18.4c0-4.1-1.6-7.9-4.5-10.8c-2.9-2.9-6.7-4.5-10.8-4.5c-4.1,0-7.9,1.6-10.8,4.5
					c-2.9,2.9-4.5,6.7-4.5,10.8v18.4h-6.3v-18.4c0-2.9,0.6-5.7,1.7-8.4c1.1-2.6,2.6-4.9,4.6-6.8c2-2,4.3-3.5,6.8-4.6
					c2.7-1.1,5.5-1.7,8.4-1.7c2.9,0,5.7,0.6,8.4,1.7c2.6,1.1,4.9,2.6,6.8,4.6c2,2,3.5,4.3,4.6,6.8c1.1,2.7,1.7,5.5,1.7,8.4V153.7z"
					/>
			</g>
			
				<linearGradient id="SVGID_00000043440872432013763390000005629205607707612320_" gradientUnits="userSpaceOnUse" x1="154.1855" y1="133.0481" x2="210.002" y2="188.8646">
				<stop  offset="0" style="stop-color:#FFE887"/>
				<stop  offset="0.174" style="stop-color:#FDDF7B"/>
				<stop  offset="0.4853" style="stop-color:#F8C65D"/>
				<stop  offset="0.8953" style="stop-color:#EF9E2B"/>
				<stop  offset="1" style="stop-color:#ED931D"/>
			</linearGradient>
			<path style="fill:url(#SVGID_00000043440872432013763390000005629205607707612320_);" d="M214.8,191.1h-50.8
				c-2.4,0-4.3-1.9-4.3-4.3v-36.8c0-2.4,1.9-4.3,4.3-4.3h50.8c2.4,0,4.3,1.9,4.3,4.3v36.8C219.2,189.1,217.2,191.1,214.8,191.1z"/>
			<g>
				<g>
					<image style="overflow:visible;" width="5" height="13" xlink:href="EF96195F.png"  transform="matrix(1 0 0 1 187 165)">
					</image>
				</g>
				<circle class="st13" cx="189.5" cy="165.2" r="4.6"/>
			</g>
		</g>
	</g>
</g>
</svg>
